<svg width="24" height="24" viewBox="0 0 24 24" fill="none" xmlns="http://www.w3.org/2000/svg">
<path d="M16.243 7.75726C15.8525 7.36672 15.2194 7.36672 14.8288 7.75726L12.0004 10.5857L9.17196 7.75726C8.78142 7.36672 8.14829 7.36672 7.75775 7.75726C7.36721 8.1478 7.36721 8.78093 7.75775 9.17147L10.5862 11.9999L7.75775 14.8283C7.36721 15.2189 7.36721 15.852 7.75775 16.2425C8.14829 16.6331 8.78142 16.6331 9.17196 16.2425L12.0004 13.4141L14.8288 16.2425C15.2194 16.6331 15.8525 16.6331 16.243 16.2425C16.6336 15.852 16.6336 15.2189 16.243 14.8283L13.4146 11.9999L16.243 9.17147C16.6336 8.78093 16.6336 8.1478 16.243 7.75726Z" fill="#212733"/>
</svg>
