<svg width="92" height="92" viewBox="0 0 92 92" fill="none" xmlns="http://www.w3.org/2000/svg">
<rect width="92" height="92" rx="16" fill="#888888"/>
<path d="M67 24H25C23.1441 24.002 21.3648 24.7401 20.0524 26.0524C18.7401 27.3648 18.002 29.1441 18 31V61C18.002 62.8559 18.7401 64.6352 20.0524 65.9476C21.3648 67.2599 23.1441 67.998 25 68H67C68.8559 67.998 70.6352 67.2599 71.9476 65.9476C73.2599 64.6352 73.998 62.8559 74 61V31C73.998 29.1441 73.2599 27.3648 71.9476 26.0524C70.6352 24.7401 68.8559 24.002 67 24ZM65.2275 35.5788L47.2275 49.5788C46.8765 49.8516 46.4446 49.9997 46 49.9997C45.5554 49.9997 45.1235 49.8516 44.7725 49.5788L26.7725 35.5788C26.561 35.419 26.3834 35.2189 26.2499 34.9899C26.1165 34.761 26.0298 34.5078 25.9951 34.2451C25.9603 33.9824 25.9781 33.7153 26.0474 33.4596C26.1167 33.2038 26.2362 32.9643 26.3989 32.7551C26.5615 32.5459 26.7642 32.3711 26.995 32.2409C27.2258 32.1106 27.4802 32.0276 27.7434 31.9965C28.0065 31.9654 28.2733 31.987 28.5281 32.0599C28.7828 32.1328 29.0206 32.2557 29.2275 32.4212L46 45.4663L62.7725 32.4212C63.1919 32.1045 63.7191 31.9656 64.2401 32.0346C64.7612 32.1035 65.2341 32.3748 65.5567 32.7897C65.8793 33.2046 66.0256 33.7298 65.964 34.2517C65.9024 34.7736 65.6378 35.2504 65.2275 35.5788Z" fill="white"/>
</svg>
