<svg width="36" height="36" viewBox="0 0 36 36" fill="none" xmlns="http://www.w3.org/2000/svg">
<path d="M10.0577 8.25373C10.4621 8.08622 10.8956 8 11.3333 8C11.7711 8 12.2045 8.08622 12.6089 8.25374C13.0134 8.42125 13.3808 8.66678 13.6904 8.97631C13.9999 9.28584 14.2454 9.6533 14.4129 10.0577C14.5804 10.4621 14.6667 10.8956 14.6667 11.3333C14.6667 11.7711 14.5804 12.2045 14.4129 12.6089C14.2454 13.0134 13.9999 13.3808 13.6904 13.6904C13.3808 13.9999 13.0134 14.2454 12.6089 14.4129C12.2045 14.5804 11.7711 14.6667 11.3333 14.6667C10.8956 14.6667 10.4621 14.5804 10.0577 14.4129C9.6533 14.2454 9.28584 13.9999 8.97631 13.6904C8.66678 13.3808 8.42125 13.0134 8.25373 12.6089C8.08622 12.2045 8 11.7711 8 11.3333C8 10.8956 8.08622 10.4621 8.25374 10.0577C8.42125 9.6533 8.66678 9.28584 8.97631 8.97631C9.28584 8.66678 9.6533 8.42125 10.0577 8.25373Z" fill="#F7F7F7"/>
<path d="M23.3911 21.5871C23.7955 21.4196 24.2289 21.3333 24.6667 21.3333C25.1044 21.3333 25.5379 21.4196 25.9423 21.5871C26.3467 21.7546 26.7142 22.0001 27.0237 22.3096C27.3332 22.6192 27.5788 22.9866 27.7463 23.3911C27.9138 23.7955 28 24.2289 28 24.6667C28 25.1044 27.9138 25.5379 27.7463 25.9423C27.5788 26.3467 27.3332 26.7142 27.0237 27.0237C26.7142 27.3332 26.3467 27.5788 25.9423 27.7463C25.5379 27.9138 25.1044 28 24.6667 28C24.2289 28 23.7955 27.9138 23.3911 27.7463C22.9866 27.5788 22.6192 27.3332 22.3096 27.0237C22.0001 26.7142 21.7546 26.3467 21.5871 25.9423C21.4196 25.5379 21.3333 25.1044 21.3333 24.6667C21.3333 24.2289 21.4196 23.7955 21.5871 23.3911C21.7546 22.9866 22.0001 22.6192 22.3096 22.3096C22.6192 22.0001 22.9866 21.7546 23.3911 21.5871Z" fill="#F7F7F7"/>
<path d="M17.6748 10.3333C17.1226 10.3333 16.6748 10.781 16.6748 11.3333C16.6748 11.8856 17.1226 12.3333 17.6748 12.3333H21.3634C21.4846 12.3333 21.5833 12.3958 21.6379 12.5311C21.6932 12.668 21.6704 12.8055 21.5673 12.9112L13.0011 21.6922C11.5995 23.129 12.542 25.6667 14.6367 25.6667H18.3252C18.8775 25.6667 19.3252 25.219 19.3252 24.6667C19.3252 24.1144 18.8775 23.6667 18.3252 23.6667H14.6367C14.5154 23.6667 14.4168 23.6042 14.3621 23.4689C14.3068 23.332 14.3296 23.1945 14.4327 23.0888L22.9989 14.3078C24.4005 12.871 23.458 10.3333 21.3634 10.3333H17.6748Z" fill="#F7F7F7"/>
</svg>
