<svg width="25" height="24" viewBox="0 0 25 24" fill="none" xmlns="http://www.w3.org/2000/svg">
<path fill-rule="evenodd" clip-rule="evenodd" d="M17.7167 7C17.7167 4.23858 15.4535 2 12.6617 2C9.86981 2 7.60657 4.23858 7.60657 7V10H6.59555C4.92044 10 3.5625 11.3431 3.5625 13V18C3.5625 19.6569 4.92044 21 6.59555 21H18.7278C20.4029 21 21.7608 19.6569 21.7608 18V13C21.7608 11.3431 20.4029 10 18.7278 10H17.7167V7ZM15.6947 10V7C15.6947 5.34315 14.3368 4 12.6617 4C10.9865 4 9.62861 5.34315 9.62861 7L9.6286 10H15.6947ZM5.58453 13C5.58453 12.4477 6.03718 12 6.59555 12H18.7278C19.2861 12 19.7388 12.4477 19.7388 13V18C19.7388 18.5523 19.2861 19 18.7278 19H6.59555C6.03718 19 5.58453 18.5523 5.58453 18V13Z" fill="#212733"/>
</svg>
