<svg width="24" height="24" viewBox="0 0 24 24" fill="none" xmlns="http://www.w3.org/2000/svg">
<path fill-rule="evenodd" clip-rule="evenodd" d="M5 6C5 5.44772 5.44772 5 6 5H9C9.55228 5 10 4.55228 10 4C10 3.44772 9.55228 3 9 3H6C4.34315 3 3 4.34315 3 6V18C3 19.6569 4.34315 21 6 21H18C19.6569 21 21 19.6569 21 18V15C21 14.4477 20.5523 14 20 14C19.4477 14 19 14.4477 19 15V18C19 18.5523 18.5523 19 18 19H6C5.44772 19 5 18.5523 5 18V6ZM12 4C12 3.44772 12.4477 3 13 3H20C20.5523 3 21 3.44772 21 4V11C21 11.5523 20.5523 12 20 12C19.4477 12 19 11.5523 19 11V6.41421L10.7071 14.7071C10.3166 15.0976 9.68342 15.0976 9.29289 14.7071C8.90237 14.3166 8.90237 13.6834 9.29289 13.2929L17.5858 5H13C12.4477 5 12 4.55228 12 4Z" fill="#212733"/>
</svg>
