<svg width="26" height="32" viewBox="0 0 26 32" fill="none" xmlns="http://www.w3.org/2000/svg">
<path d="M3.37642 32C2.76738 31.8662 2.16474 31.7003 1.64989 31.331C0.562736 30.5531 0.00399104 29.5046 0.00319283 28.1845C-0.00106428 23.9787 -0.00106428 19.7725 0.00319283 15.5657C-0.0104454 14.8432 0.193632 14.1327 0.589875 13.5234C1.31545 12.4278 2.35072 11.8245 3.68373 11.7674C4.48193 11.733 5.27535 11.7611 6.12065 11.7611V11.4168C6.12065 9.8972 6.14699 8.37678 6.11586 6.85715C6.0536 3.81396 8.02597 1.28802 10.8253 0.348223C14.6359 -0.931182 18.9534 1.44843 19.7492 5.30073C19.7991 5.50325 19.8291 5.71 19.8386 5.91813C19.8474 6.9354 19.8426 7.95266 19.8426 8.98949H17.3331C17.3331 8.88933 17.3331 8.78056 17.3331 8.67179C17.3243 7.8392 17.3897 6.998 17.2908 6.17636C17.0681 4.33824 15.739 2.98763 13.8832 2.59638C12.781 2.36724 11.6311 2.56803 10.6774 3.15618C9.72369 3.74432 9.0412 4.67355 8.77469 5.74676C8.71011 6.00976 8.67637 6.27912 8.67412 6.54962C8.66534 8.21559 8.66853 9.88077 8.66853 11.5467C8.66853 11.607 8.67492 11.6665 8.6797 11.7572H9.07083C13.4147 11.7572 17.7582 11.7572 22.1016 11.7572C23.9726 11.7572 25.4764 12.9122 25.8978 14.669C25.9671 14.9841 25.9998 15.3059 25.9952 15.6283C26.0016 19.7928 26.0016 23.9574 25.9952 28.1219C25.9952 30.1165 24.7388 31.5853 22.7345 31.9523C22.6941 31.9642 22.6551 31.9802 22.618 32H3.37642ZM4.01977 14.2558C3.04755 14.2558 2.54868 14.7441 2.54868 15.6964C2.54868 19.8176 2.54868 23.9407 2.54868 28.0655C2.54868 29.0139 3.04995 29.4999 4.02616 29.4999H21.9651C22.9588 29.4999 23.4521 29.0163 23.4521 28.0436C23.4521 23.9307 23.4521 19.8179 23.4521 15.705C23.4521 14.7355 22.9572 14.2558 21.9587 14.2558H4.01977Z" fill="#FFAC2F"/>
<path d="M11.7249 23.6217C11.7249 23.2054 11.7376 22.7891 11.7169 22.3736C11.7079 22.2376 11.6476 22.1098 11.5477 22.0152C10.6928 21.3109 10.4054 20.2154 10.846 19.2584C11.061 18.7843 11.4326 18.3951 11.9009 18.1535C12.3691 17.9119 12.9068 17.8321 13.4271 17.9268C13.9474 18.0216 14.4199 18.2855 14.7684 18.6759C15.1169 19.0662 15.3211 19.5603 15.3479 20.0784C15.395 20.8461 15.0925 21.487 14.4907 21.9682C14.416 22.0215 14.3566 22.0926 14.318 22.1748C14.2795 22.257 14.263 22.3475 14.2703 22.4377C14.2783 23.2586 14.2847 24.081 14.2703 24.9018C14.2663 25.1825 14.1652 25.4536 13.9836 25.6706C13.802 25.8876 13.5506 26.0378 13.2706 26.0965C12.9906 26.1553 12.6985 26.1191 12.4422 25.9939C12.1859 25.8687 11.9806 25.6619 11.8598 25.4073C11.7799 25.2321 11.7696 25.0278 11.7281 24.8361C11.7261 24.8156 11.7261 24.7949 11.7281 24.7743L11.7249 23.6217Z" fill="#FFAC2F"/>
</svg>
