<svg width="20" height="18" viewBox="0 0 20 18" fill="none" xmlns="http://www.w3.org/2000/svg">
<path fill-rule="evenodd" clip-rule="evenodd" d="M15 3.6V3.3C15 1.47746 13.461 0 11.5625 0H3.4375C1.53902 0 0 1.47746 0 3.3V14.7C0 16.5225 1.53902 18 3.4375 18H16.5625C18.461 18 20 16.5225 20 14.7V6.9C20 5.07746 18.461 3.6 16.5625 3.6H15ZM3.4375 1.8C2.57456 1.8 1.875 2.47157 1.875 3.3V3.6H13.125V3.3C13.125 2.47157 12.4254 1.8 11.5625 1.8H3.4375ZM12.8125 9.9C12.2947 9.9 11.875 10.3029 11.875 10.8C11.875 11.2971 12.2947 11.7 12.8125 11.7H15.3125C15.8303 11.7 16.25 11.2971 16.25 10.8C16.25 10.3029 15.8303 9.9 15.3125 9.9H12.8125Z" fill="#F7F7F7"/>
</svg>
