<svg width="92" height="92" viewBox="0 0 92 92" fill="none" xmlns="http://www.w3.org/2000/svg">
<rect width="92" height="92" rx="16" fill="#65D072"/>
<path d="M24 68L27.1595 56.2723C24.6114 51.7038 23.8019 46.3727 24.8794 41.2573C25.9569 36.1419 28.8492 31.5854 33.0255 28.4238C37.2018 25.2622 42.3819 23.7077 47.6154 24.0454C52.8489 24.3832 57.7847 26.5906 61.517 30.2625C65.2493 33.9345 67.5278 38.8248 67.9344 44.0359C68.341 49.2471 66.8484 54.4296 63.7304 58.6325C60.6125 62.8354 56.0785 65.7767 50.9603 66.9167C45.8421 68.0567 40.4831 67.3189 35.8666 64.8387L24 68ZM36.4388 60.4502L37.1727 60.884C40.5165 62.8594 44.422 63.6768 48.2806 63.2089C52.1392 62.7411 55.7341 61.0142 58.5052 58.2975C61.2762 55.5807 63.0677 52.0267 63.6005 48.1892C64.1333 44.3518 63.3774 40.4464 61.4507 37.0818C59.524 33.7172 56.5347 31.0823 52.9485 29.5877C49.3624 28.0931 45.3809 27.8229 41.6246 28.819C37.8682 29.8151 34.548 32.0217 32.1813 35.0948C29.8146 38.168 28.5344 41.9351 28.5402 45.8091C28.537 49.0213 29.4284 52.1714 31.115 54.9086L31.5752 55.6649L29.8089 62.2105L36.4388 60.4502Z" fill="white"/>
<path fill-rule="evenodd" clip-rule="evenodd" d="M54.4012 49.0594C53.9524 48.725 53.427 48.4896 52.8649 48.3711C52.3027 48.2527 51.7188 48.2544 51.1575 48.3761C50.3141 48.6998 49.7692 49.9227 49.2243 50.5341C49.1093 50.6807 48.9405 50.7835 48.7494 50.8232C48.5583 50.863 48.3581 50.8369 48.1863 50.7499C45.0987 49.6325 42.5107 47.5833 40.8425 44.9351C40.7003 44.7699 40.6329 44.5601 40.6547 44.3498C40.6765 44.1396 40.7857 43.9454 40.9593 43.8081C41.5671 43.2521 42.0134 42.5635 42.2568 41.8059C42.3109 40.9703 42.1037 40.1379 41.66 39.4081C41.3169 38.3848 40.6641 37.4737 39.7786 36.7824C39.3219 36.5926 38.8155 36.529 38.3205 36.5992C37.8256 36.6694 37.3631 36.8704 36.989 37.1781C36.3396 37.6958 35.8241 38.3416 35.4806 39.0678C35.137 39.794 34.9741 40.5822 35.0039 41.3743C35.0059 41.8191 35.0669 42.262 35.1855 42.6931C35.4868 43.7289 35.9502 44.7185 36.5609 45.6305C37.0015 46.3291 37.4822 47.0055 38.0011 47.6567C39.6872 49.7956 41.8067 51.6116 44.2419 53.0039C45.464 53.7115 46.77 54.2867 48.1344 54.7184C49.5516 55.312 51.1164 55.5399 52.6626 55.3778C53.5435 55.2546 54.3782 54.9332 55.0931 54.4419C55.8081 53.9506 56.3814 53.3044 56.7626 52.5603C56.9866 52.1108 57.0546 51.6082 56.9572 51.1216C56.7237 50.1265 55.2835 49.539 54.4012 49.0594Z" fill="white"/>
</svg>
