<svg width="20" height="20" viewBox="0 0 20 20" fill="none" xmlns="http://www.w3.org/2000/svg">
<path d="M7.1893 9.0625H12.8107C12.7335 6.49923 12.3435 4.22824 11.7725 2.57007C11.4511 1.63664 11.0896 0.948465 10.7346 0.512372C10.3732 0.0684951 10.1192 0 10 0C9.88075 0 9.6268 0.0684951 9.26543 0.512372C8.91039 0.948465 8.54891 1.63664 8.22749 2.57007C7.6565 4.22824 7.26649 6.49923 7.1893 9.0625Z" fill="#F7F7F7"/>
<path d="M12.8107 10.9375C12.7335 13.5008 12.3435 15.7718 11.7725 17.4299C11.4511 18.3634 11.0896 19.0515 10.7346 19.4876C10.3732 19.9315 10.1192 20 10 20C9.88075 20 9.6268 19.9315 9.26543 19.4876C8.91039 19.0515 8.54891 18.3634 8.22749 17.4299C7.6565 15.7718 7.26649 13.5008 7.1893 10.9375H12.8107Z" fill="#F7F7F7"/>
<path d="M14.6947 10.9375H20C19.6169 15.0396 16.7454 18.4227 12.903 19.5759C13.146 19.1116 13.3626 18.5935 13.5539 18.038C14.2036 16.1512 14.6172 13.6666 14.6947 10.9375Z" fill="#F7F7F7"/>
<path d="M20 9.0625H14.6947C14.6172 6.33343 14.2036 3.84885 13.5539 1.96197C13.3626 1.40651 13.146 0.888374 12.903 0.424092C16.7454 1.57729 19.6169 4.96043 20 9.0625Z" fill="#F7F7F7"/>
<path d="M5.30534 9.0625H1.88837e-08C0.38306 4.96043 3.25457 1.57729 7.09696 0.424092C6.85403 0.888374 6.63738 1.40651 6.44611 1.96197C5.79636 3.84885 5.38285 6.33343 5.30534 9.0625Z" fill="#F7F7F7"/>
<path d="M5.30534 10.9375H0C0.38306 15.0396 3.25457 18.4227 7.09696 19.5759C6.85403 19.1116 6.63738 18.5935 6.44611 18.038C5.79636 16.1512 5.38285 13.6666 5.30534 10.9375Z" fill="#F7F7F7"/>
</svg>
