<svg width="24" height="24" viewBox="0 0 24 24" fill="none" xmlns="http://www.w3.org/2000/svg">
<path fill-rule="evenodd" clip-rule="evenodd" d="M12.0329 3.70006L10.7599 7.45947C10.5712 8.00467 10.1769 8.49244 9.5825 8.69471C8.97446 8.90161 8.35366 8.74229 7.87613 8.37591L7.86359 8.36614L5.19361 6.24935L6.54337 16H17.5237L18.8226 6.28892L16.1876 8.37134C15.7112 8.74262 15.0891 8.90207 14.4811 8.6943C13.8883 8.49172 13.4945 8.00423 13.3059 7.45946L13.3037 7.45313L12.0329 3.70006ZM19.5847 5.76722C19.5847 5.76723 19.5841 5.7674 19.5829 5.76766L19.5847 5.76722ZM13.7968 2.67329C13.663 2.27637 13.4829 1.90065 13.2341 1.60474C12.9868 1.31048 12.5835 1 12.0329 1C11.4823 1 11.079 1.31048 10.8317 1.60474C10.583 1.9005 10.403 2.27599 10.2692 2.67268C10.2691 2.67302 10.269 2.67336 10.2689 2.67369L8.92155 6.65261L6.00161 4.33766C6.00132 4.33743 6.00103 4.33719 6.00073 4.33696C5.6696 4.07347 5.30937 3.84864 4.93617 3.73568C4.56466 3.62323 4.00472 3.57965 3.53345 3.97195C3.09498 4.33694 3.00496 4.86141 3.00021 5.21846C2.99548 5.57512 3.06946 5.96179 3.18905 6.35421L4.59252 16.4928C4.60022 16.5484 4.61259 16.6033 4.6295 16.6569C4.75526 17.0551 5.01102 17.3767 5.29303 17.5975C5.57034 17.8147 5.95846 18 6.40338 18H17.6544C18.0984 18 18.4834 17.8154 18.756 17.6073C19.0328 17.396 19.2894 17.0888 19.4247 16.7089C19.4482 16.6431 19.4646 16.5751 19.4739 16.5059L20.7979 6.60744C20.927 6.18264 21.0052 5.76835 20.9997 5.3897C20.9942 5.01068 20.8982 4.47249 20.4522 4.09874C19.9723 3.69649 19.3974 3.73509 19.0039 3.85323C18.6102 3.97144 18.2256 4.20984 17.8666 4.49532C17.8661 4.49567 17.8657 4.49603 17.8653 4.49638L15.1427 6.64801L13.7968 2.67329C13.7968 2.67342 13.7967 2.67315 13.7968 2.67329ZM5 20.856C5 20.3832 5.38323 20 5.85597 20H18.144C18.6168 20 19 20.3832 19 20.856V21.144C19 21.6168 18.6168 22 18.144 22H5.85597C5.38323 22 5 21.6168 5 21.144V20.856Z" fill="#212733"/>
</svg>
