<svg width="18" height="18" viewBox="0 0 18 18" fill="none" xmlns="http://www.w3.org/2000/svg">
<path fill-rule="evenodd" clip-rule="evenodd" d="M9 0C4.02944 0 0 4.02944 0 9C0 13.9706 4.02944 18 9 18C13.9706 18 18 13.9706 18 9C18 4.02944 13.9706 0 9 0ZM9 12.375C9.46599 12.375 9.84375 12.7528 9.84375 13.2188V13.23C9.84375 13.696 9.46599 14.0738 9 14.0738C8.53401 14.0738 8.15625 13.696 8.15625 13.23V13.2188C8.15625 12.7528 8.53401 12.375 9 12.375ZM9.65843 4.00235C9.00374 3.87213 8.32514 3.93896 7.70844 4.19441C7.09174 4.44985 6.56464 4.88244 6.19379 5.43745C5.82294 5.99247 5.625 6.64499 5.625 7.3125C5.625 7.77849 6.00276 8.15625 6.46875 8.15625C6.93474 8.15625 7.3125 7.77849 7.3125 7.3125C7.3125 6.97874 7.41147 6.65248 7.5969 6.37498C7.78232 6.09747 8.04587 5.88118 8.35422 5.75345C8.66257 5.62573 9.00187 5.59231 9.32921 5.65743C9.65656 5.72254 9.95724 5.88326 10.1932 6.11926C10.4292 6.35526 10.59 6.65594 10.6551 6.98329C10.7202 7.31063 10.6868 7.64993 10.559 7.95828C10.4313 8.26663 10.215 8.53018 9.93752 8.71561C9.66002 8.90103 9.33375 9 9 9C8.77622 9 8.56161 9.08889 8.40338 9.24713C8.24514 9.40536 8.15625 9.61997 8.15625 9.84375L8.15625 10.4063C8.15625 10.8722 8.53401 11.25 9 11.25C9.4046 11.25 9.74268 10.9652 9.82474 10.5852C10.197 10.4914 10.5525 10.3342 10.875 10.1187C11.4301 9.74786 11.8626 9.22076 12.1181 8.60406C12.3735 7.98736 12.4404 7.30876 12.3101 6.65407C12.1799 5.99939 11.8585 5.39802 11.3865 4.92602C10.9145 4.45401 10.3131 4.13258 9.65843 4.00235Z" fill="#F7F7F7"/>
</svg>
