<svg width="16" height="20" viewBox="0 0 16 20" fill="none" xmlns="http://www.w3.org/2000/svg">
<path d="M10 1.00006C10 0.564324 9.71784 0.178746 9.30252 0.046927C8.88719 -0.0848916 8.43432 0.0673991 8.18303 0.423385L0.183035 11.7566C-0.0324037 12.0618 -0.0597547 12.4617 0.112117 12.7934C0.283989 13.1251 0.62642 13.3333 1 13.3333H6.33333V18.9999C6.33333 19.4393 6.62019 19.8273 7.04032 19.956C7.46045 20.0848 7.91541 19.9242 8.16162 19.5602L15.8283 8.22699C16.0356 7.92052 16.0567 7.52462 15.8833 7.19781C15.7098 6.871 15.37 6.66669 15 6.66669H10V1.00006Z" fill="#F7F7F7"/>
</svg>
