<svg width="417" height="48" viewBox="0 0 417 48" fill="none" xmlns="http://www.w3.org/2000/svg">
<path d="M27.4449 43L32.9328 33.4957L16.4692 5H5.48785L0 14.4986H10.9871L27.4449 43ZM38.4263 23.9972L43.9199 14.4986L38.4263 5H27.4506L21.9628 14.4986H32.9385L38.4263 23.9972Z" fill="#A08CFF"/>
<path d="M32.9385 14.4986L38.4263 5H27.4506L21.9628 14.4986H32.9385Z" fill="#A08CFF"/>
<path d="M10.9871 14.4986L16.4692 5H5.48785L0 14.4986H10.9871Z" fill="#A08CFF"/>
<path d="M73.983 37.9949C72.5666 37.9949 71.5126 37.4737 70.7879 36.4314L57.9742 18.0611L63.3435 15.2274L73.7525 29.9497C73.8183 30.0474 73.8842 30.1126 73.983 30.1126C74.0489 30.1126 74.1478 30.08 74.2136 29.9497L84.5897 15.2274L89.9589 18.0611L77.1453 36.4314C76.4206 37.4737 75.3665 37.9949 73.983 37.9949Z" fill="#F7F7F7"/>
<path d="M115.26 38.06L112.328 34.0211H95.6277L92.696 38.06L87.3268 35.2263L100.799 16.856C101.557 15.8137 102.611 15.2926 103.994 15.2926C105.312 15.2926 106.366 15.8137 107.157 16.856L120.629 35.2263L115.26 38.06ZM99.284 29.0377H108.705L104.225 22.8817C104.126 22.784 104.06 22.7189 103.994 22.7189C103.929 22.7189 103.83 22.784 103.764 22.8817L99.284 29.0377Z" fill="#F7F7F7"/>
<path d="M148.586 37.9297C147.433 37.9297 146.379 37.5389 145.424 36.7246L130.502 24.2171C130.37 24.152 130.271 24.1194 130.205 24.152C130.139 24.2171 130.106 24.2823 130.106 24.4126V37.5714H123.947V19.8851C123.947 18.2566 124.243 17.1166 124.836 16.4651C125.429 15.8137 126.252 15.488 127.274 15.488C128.394 15.488 129.448 15.9114 130.436 16.6931L145.358 29.168C145.456 29.2657 145.555 29.2983 145.621 29.2331C145.687 29.2006 145.753 29.1029 145.753 28.9726V15.7811H151.913V33.5326C151.913 35.1937 151.583 36.3337 150.99 36.9851C150.397 37.6366 149.574 37.9297 148.586 37.9297Z" fill="#F7F7F7"/>
<path d="M183.808 38.06L180.877 34.0211H164.176L161.244 38.06L155.875 35.2263L169.348 16.856C170.105 15.8137 171.159 15.2926 172.543 15.2926C173.86 15.2926 174.915 15.8137 175.705 16.856L189.178 35.2263L183.808 38.06ZM167.832 29.0377H177.253L172.773 22.8817C172.675 22.784 172.609 22.7189 172.543 22.7189C172.477 22.7189 172.378 22.784 172.312 22.8817L167.832 29.0377Z" fill="#F7F7F7"/>
<path d="M220 35.2914L214.73 38.5486L208.01 31.1223H198.754V37.604H192.495V20.6994C192.495 19.136 192.89 17.8983 193.747 17.0514C194.603 16.2046 195.822 15.7811 197.436 15.7811H210.974C214.137 15.7811 216.41 16.4 217.793 17.6377C219.176 18.8754 219.901 20.8297 219.901 23.4354C219.901 27.2789 218.32 29.6566 215.191 30.6337L220 35.2914ZM198.754 22.1326V25.5526H211.37C212.16 25.5526 212.753 25.4549 213.116 25.2269C213.445 24.9989 213.643 24.4777 213.643 23.696C213.643 22.9143 213.445 22.4257 213.083 22.1651C212.72 21.9371 212.16 21.8069 211.37 21.8069H199.083C198.853 21.8069 198.754 21.9371 198.754 22.1326Z" fill="#F7F7F7"/>
<rect x="230" y="11" width="92" height="26" rx="6" fill="#A08CFF"/>
<path d="M241.276 29L238.28 19.2H240.576L242.746 26.802L244.874 19.2H247.184L244.174 29H241.276ZM246.197 29L249.375 19.2H252.301L255.465 29H253.267L252.595 26.886H249.039L248.367 29H246.197ZM249.655 24.926H251.979L250.817 21.258L249.655 24.926ZM256.3 29V19.2H258.61L262.698 25.556V19.2H264.742V29H262.418L258.33 22.546V29H256.3ZM270.673 29.126C267.971 29.126 265.787 26.97 265.787 24.1C265.787 21.216 267.971 19.074 270.897 19.074C272.871 19.074 274.495 20.04 275.293 21.524L273.403 22.49C272.885 21.636 271.947 21.146 270.897 21.146C269.329 21.146 267.957 22.28 267.957 24.1C267.957 25.92 269.273 27.054 270.897 27.054C272.157 27.054 273.151 26.508 273.627 25.318H270.981V23.428H275.671V29H273.641V28.048C273.053 28.678 272.031 29.126 270.673 29.126ZM281.145 29.126C278.751 29.126 277.071 27.446 277.071 25.038V19.2H279.143V25.08C279.143 26.228 279.815 27.11 281.145 27.11C282.531 27.11 283.175 26.228 283.175 25.08V19.2H285.247V25.038C285.247 27.446 283.581 29.126 281.145 29.126ZM285.669 29L288.847 19.2H291.773L294.937 29H292.739L292.067 26.886H288.511L287.839 29H285.669ZM289.127 24.926H291.451L290.289 21.258L289.127 24.926ZM295.772 29V19.2H299.86C302.058 19.2 303.318 20.754 303.318 22.322C303.318 23.568 302.674 24.674 301.512 25.206L303.556 27.698V29H301.4V28.076L299.342 25.542H297.83V29H295.772ZM297.83 23.694H299.818C300.658 23.694 301.204 23.106 301.204 22.364C301.204 21.636 300.658 21.048 299.818 21.048H297.83V23.694ZM304.676 29V19.2H308.134C311.2 19.2 313.342 21.16 313.342 24.1C313.342 26.83 311.2 29 308.134 29H304.676ZM306.748 27.152H308.148C309.842 27.152 311.172 26.074 311.172 24.1C311.172 22.14 309.842 21.048 308.148 21.048H306.748V27.152Z" fill="#101010"/>
<path d="M351.952 30V20.752H348.448V18.8H357.552V20.752H354.048V30H351.952ZM358.752 30V18.8H366.368V20.688H360.8V23.296H365.872V25.168H360.8V28.112H366.368V30H358.752ZM371.638 28.16C373.35 28.16 373.91 27.504 373.91 26.832C373.91 26.224 373.478 25.824 372.598 25.616L370.742 25.168C369.014 24.752 367.734 23.808 367.734 21.952C367.734 19.92 369.478 18.656 371.75 18.656C374.182 18.656 375.478 20 375.926 21.264L374.054 22.208C373.878 21.472 373.174 20.576 371.75 20.576C370.518 20.576 369.83 21.152 369.83 21.904C369.83 22.544 370.326 22.912 371.094 23.088L373.19 23.6C375.078 24.064 376.054 25.2 376.054 26.736C376.054 28.512 374.646 30.144 371.59 30.144C369.03 30.144 367.622 28.688 367.158 27.472L368.934 26.448C369.238 27.424 370.342 28.16 371.638 28.16ZM380.016 30V20.752H376.512V18.8H385.616V20.752H382.112V30H380.016ZM386.816 30V18.8H389.024L394.224 26.592V18.8H396.24V30H394.016L388.816 22.144V30H386.816ZM398.379 30V18.8H405.995V20.688H400.427V23.296H405.499V25.168H400.427V28.112H405.995V30H398.379ZM410.065 30V20.752H406.561V18.8H415.665V20.752H412.161V30H410.065Z" fill="white"/>
<line opacity="0.5" x1="334.5" y1="11" x2="334.5" y2="37" stroke="white"/>
</svg>
