<svg width="628" height="645" viewBox="0 0 628 645" fill="none" xmlns="http://www.w3.org/2000/svg">
<path d="M501.639 60.0201L564.266 124.213L368.752 294.409L338.36 263.257L501.639 60.0201Z" fill="url(#paint0_radial_14058_3248)" fill-opacity="0.14"/>
<path d="M602.108 195.536L624.985 283.273L372.787 330.59L361.685 288.012L602.108 195.536Z" fill="url(#paint1_radial_14058_3248)" fill-opacity="0.14"/>
<path d="M627.215 365.632L604.212 453.404L362.907 365.163L374.07 322.568L627.215 365.632Z" fill="url(#paint2_radial_14058_3248)" fill-opacity="0.14"/>
<path d="M23.7867 191.598L0.783882 279.37L252.914 326.306L264.077 283.711L23.7867 191.598Z" fill="url(#paint3_radial_14058_3248)" fill-opacity="0.14"/>
<path d="M2.71455 360.581L25.5915 448.318L267.024 359.712L255.922 317.134L2.71455 360.581Z" fill="url(#paint4_radial_14058_3248)" fill-opacity="0.14"/>
<path d="M63.7325 520.788L126.359 584.982L292.402 384.577L262.009 353.424L63.7325 520.788Z" fill="url(#paint5_radial_14058_3248)" fill-opacity="0.14"/>
<path d="M186.62 620.732L272.033 644.369L317.711 385.277L276.26 373.806L186.62 620.732Z" fill="url(#paint6_radial_14058_3248)" fill-opacity="0.14"/>
<path d="M351.062 642.384L436.442 618.875L350.22 370.778L308.786 382.187L351.062 642.384Z" fill="url(#paint7_radial_14058_3248)" fill-opacity="0.14"/>
<path d="M506.966 579.68L569.435 515.323L374.417 344.698L344.101 375.93L506.966 579.68Z" fill="url(#paint8_radial_14058_3248)" fill-opacity="0.14"/>
<path d="M441.394 24.2639L355.981 0.626977L310.303 259.719L351.754 271.19L441.394 24.2639Z" fill="url(#paint9_radial_14058_3248)" fill-opacity="0.14"/>
<path d="M276.952 2.61188L191.572 26.1214L277.794 274.219L319.228 262.81L276.952 2.61188Z" fill="url(#paint10_radial_14058_3248)" fill-opacity="0.14"/>
<path d="M121.048 65.3164L58.579 129.673L253.597 300.298L283.913 269.066L121.048 65.3164Z" fill="url(#paint11_radial_14058_3248)" fill-opacity="0.14"/>
<defs>
<radialGradient id="paint0_radial_14058_3248" cx="0" cy="0" r="1" gradientUnits="userSpaceOnUse" gradientTransform="translate(313.999 322.5) rotate(75.3858) scale(260.163 254.07)">
<stop stop-color="white"/>
<stop offset="1" stop-color="white" stop-opacity="0"/>
</radialGradient>
<radialGradient id="paint1_radial_14058_3248" cx="0" cy="0" r="1" gradientUnits="userSpaceOnUse" gradientTransform="translate(313.999 322.5) rotate(75.3858) scale(260.163 254.07)">
<stop stop-color="white"/>
<stop offset="1" stop-color="white" stop-opacity="0"/>
</radialGradient>
<radialGradient id="paint2_radial_14058_3248" cx="0" cy="0" r="1" gradientUnits="userSpaceOnUse" gradientTransform="translate(313.999 322.5) rotate(75.3858) scale(260.163 254.07)">
<stop stop-color="white"/>
<stop offset="1" stop-color="white" stop-opacity="0"/>
</radialGradient>
<radialGradient id="paint3_radial_14058_3248" cx="0" cy="0" r="1" gradientUnits="userSpaceOnUse" gradientTransform="translate(313.999 322.5) rotate(75.3858) scale(260.163 254.07)">
<stop stop-color="white"/>
<stop offset="1" stop-color="white" stop-opacity="0"/>
</radialGradient>
<radialGradient id="paint4_radial_14058_3248" cx="0" cy="0" r="1" gradientUnits="userSpaceOnUse" gradientTransform="translate(313.999 322.5) rotate(75.3858) scale(260.163 254.07)">
<stop stop-color="white"/>
<stop offset="1" stop-color="white" stop-opacity="0"/>
</radialGradient>
<radialGradient id="paint5_radial_14058_3248" cx="0" cy="0" r="1" gradientUnits="userSpaceOnUse" gradientTransform="translate(313.999 322.5) rotate(75.3858) scale(260.163 254.07)">
<stop stop-color="white"/>
<stop offset="1" stop-color="white" stop-opacity="0"/>
</radialGradient>
<radialGradient id="paint6_radial_14058_3248" cx="0" cy="0" r="1" gradientUnits="userSpaceOnUse" gradientTransform="translate(313.999 322.5) rotate(75.3858) scale(260.163 254.07)">
<stop stop-color="white"/>
<stop offset="1" stop-color="white" stop-opacity="0"/>
</radialGradient>
<radialGradient id="paint7_radial_14058_3248" cx="0" cy="0" r="1" gradientUnits="userSpaceOnUse" gradientTransform="translate(313.999 322.5) rotate(75.3858) scale(260.163 254.07)">
<stop stop-color="white"/>
<stop offset="1" stop-color="white" stop-opacity="0"/>
</radialGradient>
<radialGradient id="paint8_radial_14058_3248" cx="0" cy="0" r="1" gradientUnits="userSpaceOnUse" gradientTransform="translate(313.999 322.5) rotate(75.3858) scale(260.163 254.07)">
<stop stop-color="white"/>
<stop offset="1" stop-color="white" stop-opacity="0"/>
</radialGradient>
<radialGradient id="paint9_radial_14058_3248" cx="0" cy="0" r="1" gradientUnits="userSpaceOnUse" gradientTransform="translate(313.999 322.5) rotate(75.3858) scale(260.163 254.07)">
<stop stop-color="white"/>
<stop offset="1" stop-color="white" stop-opacity="0"/>
</radialGradient>
<radialGradient id="paint10_radial_14058_3248" cx="0" cy="0" r="1" gradientUnits="userSpaceOnUse" gradientTransform="translate(313.999 322.5) rotate(75.3858) scale(260.163 254.07)">
<stop stop-color="white"/>
<stop offset="1" stop-color="white" stop-opacity="0"/>
</radialGradient>
<radialGradient id="paint11_radial_14058_3248" cx="0" cy="0" r="1" gradientUnits="userSpaceOnUse" gradientTransform="translate(313.999 322.5) rotate(75.3858) scale(260.163 254.07)">
<stop stop-color="white"/>
<stop offset="1" stop-color="white" stop-opacity="0"/>
</radialGradient>
</defs>
</svg>
