<svg width="22" height="22" viewBox="0 0 22 22" fill="none" xmlns="http://www.w3.org/2000/svg">
<path d="M9.09014 7.91168L13.8042 7.91168M13.8042 7.91168L13.8042 12.6257M13.8042 7.91168L7.91163 13.8042M3.78684 17.929C4.71543 18.8576 5.81782 19.5942 7.03107 20.0968C8.24433 20.5993 9.54469 20.858 10.8579 20.858C12.1711 20.858 13.4715 20.5993 14.6847 20.0968C15.898 19.5942 17.0004 18.8576 17.929 17.929C18.8576 17.0004 19.5942 15.898 20.0967 14.6848C20.5993 13.4715 20.8579 12.1712 20.8579 10.858C20.8579 9.54474 20.5993 8.24438 20.0967 7.03112C19.5942 5.81787 18.8576 4.71547 17.929 3.78689C16.0536 1.91153 13.5101 0.857956 10.8579 0.857956C8.20575 0.857956 5.66221 1.91152 3.78684 3.78689C1.91148 5.66225 0.85791 8.20579 0.857909 10.858C0.857909 13.5101 1.91148 16.0537 3.78684 17.929Z" stroke="#06080C" stroke-width="1.5" stroke-linecap="round" stroke-linejoin="round"/>
</svg>
