<svg width="16" height="16" viewBox="0 0 16 16" fill="none" xmlns="http://www.w3.org/2000/svg">
<path d="M8 16C3.58861 16 0 12.4114 0 8C0 3.58861 3.58861 0 8 0C12.4114 0 16 3.58861 16 8C16 12.4114 12.4114 16 8 16ZM8 1.06667C4.17741 1.06667 1.06667 4.17741 1.06667 8C1.06667 11.8226 4.17741 14.9333 8 14.9333C11.8226 14.9333 14.9333 11.8226 14.9333 8C14.9333 4.17741 11.8226 1.06667 8 1.06667ZM7.31066 10.5107L12.1107 5.71068C12.3193 5.502 12.3193 5.16535 12.1107 4.95667C11.902 4.748 11.5653 4.748 11.3567 4.95667L6.934 9.37933L5.17801 7.62334C4.96934 7.41466 4.63268 7.41466 4.424 7.62334C4.21533 7.83201 4.21533 8.16867 4.424 8.37734L6.55734 10.5107C6.66134 10.6147 6.79801 10.6667 6.93466 10.6667C7.07133 10.6667 7.208 10.6147 7.31199 10.5107H7.31066Z" fill="#01604D"/>
</svg>
