<svg width="48" height="48" viewBox="0 0 48 48" fill="none" xmlns="http://www.w3.org/2000/svg">
<circle cx="24" cy="24" r="24" fill="#FFF5F5" fill-opacity="0.14"/>
<path fill-rule="evenodd" clip-rule="evenodd" d="M37.3334 23.9998C37.3334 31.3636 31.3639 37.3332 24.0001 37.3332C16.6363 37.3332 10.6667 31.3636 10.6667 23.9998C10.6667 16.636 16.6363 10.6665 24.0001 10.6665C31.3639 10.6665 37.3334 16.636 37.3334 23.9998ZM24.0001 18.3332C23.0796 18.3332 22.3334 19.0794 22.3334 19.9998C22.3334 20.5521 21.8857 20.9998 21.3334 20.9998C20.7811 20.9998 20.3334 20.5521 20.3334 19.9998C20.3334 17.9748 21.975 16.3332 24.0001 16.3332C26.0251 16.3332 27.6667 17.9748 27.6667 19.9998C27.6667 20.7283 27.4533 21.4099 27.0852 21.982C26.8546 22.3403 26.585 22.6824 26.3365 22.9913L26.2024 23.1575C25.9962 23.4128 25.8069 23.6471 25.6319 23.8875C25.2005 24.4805 25.0001 24.9261 25.0001 25.3332V25.9998C25.0001 26.5521 24.5524 26.9998 24.0001 26.9998C23.4478 26.9998 23.0001 26.5521 23.0001 25.9998V25.3332C23.0001 24.2675 23.5233 23.3862 24.0147 22.7108C24.2223 22.4255 24.4499 22.144 24.6568 21.8881L24.7783 21.7376C25.0252 21.4307 25.2354 21.1607 25.4033 20.8998C25.57 20.6407 25.6667 20.3331 25.6667 19.9998C25.6667 19.0794 24.9206 18.3332 24.0001 18.3332ZM25.0001 29.3332C25.0001 28.7809 24.5524 28.3332 24.0001 28.3332C23.4478 28.3332 23.0001 28.7809 23.0001 29.3332V30.6665C23.0001 31.2188 23.4478 31.6665 24.0001 31.6665C24.5524 31.6665 25.0001 31.2188 25.0001 30.6665V29.3332Z" fill="#FFF5F5"/>
</svg>
