<svg width="15" height="18" viewBox="0 0 15 18" fill="none" xmlns="http://www.w3.org/2000/svg">
<path d="M9.25 0.875056C9.25 0.493783 9.00311 0.156402 8.6397 0.0410611C8.27629 -0.0742802 7.88003 0.0589742 7.66015 0.370462L0.660156 10.2871C0.471647 10.5541 0.447715 10.904 0.598102 11.1942C0.74849 11.4844 1.04812 11.6666 1.375 11.6666H6.04167V16.6249C6.04167 17.0094 6.29266 17.3489 6.66028 17.4615C7.02789 17.5742 7.42598 17.4337 7.64142 17.1152L14.3497 7.19861C14.5312 6.93045 14.5497 6.58404 14.3979 6.29808C14.2461 6.01212 13.9488 5.83335 13.625 5.83335H9.25V0.875056Z" fill="#F7F7F7"/>
</svg>
