<svg width="28" height="28" viewBox="0 0 28 28" fill="none" xmlns="http://www.w3.org/2000/svg">
<path d="M6.69869 6.53299H4.05963C3.45995 6.53299 2.97461 6.04648 2.97461 5.44797V2.79957C2.97461 2.28388 3.39228 1.86621 3.90797 1.86621C4.42366 1.86621 4.84132 2.28388 4.84132 2.79957V4.60678L6.71855 4.64645C7.23191 4.65812 7.64139 5.07696 7.64139 5.58913C7.64139 6.10948 7.21904 6.533 6.69752 6.533L6.69869 6.53299Z" fill="#03D9AF"/>
<path d="M14.0008 22.4C9.36896 22.4 5.60059 18.6317 5.60059 13.9998C5.60059 9.36798 9.36896 5.59961 14.0008 5.59961C18.6326 5.59961 22.401 9.36798 22.401 13.9998C22.401 18.6317 18.6326 22.4 14.0008 22.4ZM14.0008 7.46632C10.3991 7.46632 7.4673 10.3982 7.4673 13.9998C7.4673 17.6014 10.3992 20.5333 14.0008 20.5333C17.6024 20.5333 20.5343 17.6014 20.5343 13.9998C20.5343 10.3982 17.6024 7.46632 14.0008 7.46632Z" fill="#03D9AF"/>
<path d="M11.9207 27.8495C5.31014 26.8928 0.239849 21.1747 0.00867569 14.5003C-0.0461579 12.917 0.159181 11.363 0.617702 9.87319C0.779873 9.34469 1.34456 9.05417 1.85905 9.25485C2.32573 9.43802 2.54741 9.95135 2.39923 10.4297C2.02007 11.6606 1.84155 12.944 1.8684 14.253C1.9874 20.0993 6.39271 25.1523 12.1795 25.9993C19.9298 27.1322 26.5729 20.8809 26.11 13.2462C25.7506 7.3229 20.9988 2.42405 15.0871 1.91302C11.4331 1.59684 7.94701 2.88022 5.39873 5.44006L4.07569 4.12404C7.01694 1.16881 11.042 -0.310669 15.2583 0.0546097C21.7557 0.616953 27.1073 5.78318 27.8938 12.256C29.0115 21.4519 21.1491 29.1849 11.9195 27.8501L11.9207 27.8495Z" fill="#03D9AF"/>
<path d="M14.001 6.53223C9.87784 6.53223 6.53418 9.87588 6.53418 13.9991C6.53418 18.1223 9.87784 21.4659 14.001 21.4659C18.1242 21.4659 21.4679 18.1223 21.4679 13.9991C21.4679 9.87588 18.1242 6.53223 14.001 6.53223ZM16.1594 16.4001C15.7756 16.7454 15.1864 16.714 14.8411 16.3313L13.6219 14.9756C13.2649 14.5777 13.0665 14.062 13.0665 13.5265V11.3635C13.0665 10.8478 13.4842 10.4301 13.9999 10.4301C14.5156 10.4301 14.9332 10.8478 14.9332 11.3635V13.6397L16.2282 15.0806C16.5724 15.4644 16.5421 16.0536 16.1582 16.3989L16.1594 16.4001Z" fill="#03D9AF"/>
</svg>
