<svg width="30" height="30" viewBox="0 0 30 30" fill="none" xmlns="http://www.w3.org/2000/svg">
<path d="M12.324 10.6742L18.9236 10.6742M18.9236 10.6742L18.9236 17.2739M18.9236 10.6742L10.674 18.9238M4.89933 24.6985C6.19935 25.9985 7.7427 27.0297 9.44126 27.7333C11.1398 28.4369 12.9603 28.799 14.7988 28.799C16.6373 28.799 18.4578 28.4369 20.1564 27.7333C21.855 27.0297 23.3983 25.9985 24.6983 24.6985C25.9983 23.3985 27.0296 21.8551 27.7331 20.1566C28.4367 18.458 28.7988 16.6375 28.7988 14.799C28.7988 12.9605 28.4367 11.14 27.7331 9.44142C27.0296 7.74286 25.9983 6.19952 24.6983 4.8995C22.0728 2.27399 18.5119 0.79899 14.7988 0.79899C11.0858 0.798989 7.52484 2.27399 4.89933 4.89949C2.27382 7.525 0.798828 11.086 0.798827 14.799C0.798827 18.512 2.27382 22.073 4.89933 24.6985Z" stroke="#FFF5F5" stroke-opacity="0.5" stroke-width="1.5" stroke-linecap="round" stroke-linejoin="round"/>
</svg>
