<svg width="14" height="14" viewBox="0 0 14 14" fill="none" xmlns="http://www.w3.org/2000/svg">
<path d="M13.066 0.937763C12.468 0.340026 11.6571 0.00424012 10.8116 0.00424012C9.96612 0.00424012 9.15523 0.340026 8.55725 0.937763L5.7493 3.74705C5.69651 3.79933 5.6546 3.86155 5.626 3.93013C5.5974 3.9987 5.58267 4.07226 5.58267 4.14656C5.58267 4.22086 5.5974 4.29443 5.626 4.363C5.6546 4.43157 5.69651 4.4938 5.7493 4.54608C5.80158 4.59887 5.86381 4.64078 5.93238 4.66938C6.00096 4.69798 6.07452 4.71271 6.14882 4.71271C6.22312 4.71271 6.29668 4.69798 6.36526 4.66938C6.43383 4.64078 6.49606 4.59887 6.54834 4.54608L9.35695 1.7368C9.64501 1.44993 10.0115 1.25473 10.4103 1.17578C10.8091 1.09683 11.2223 1.13766 11.598 1.29313C11.9736 1.44861 12.2948 1.71176 12.5211 2.04945C12.7475 2.38714 12.8688 2.78426 12.8699 3.19079C12.8699 3.74038 12.6558 4.25661 12.2663 4.64479L9.45833 7.45274C9.37817 7.53131 9.32335 7.63208 9.30095 7.74207C9.27854 7.85206 9.28957 7.96624 9.33262 8.06991C9.37566 8.17358 9.44875 8.26199 9.54248 8.32376C9.6362 8.38553 9.74627 8.41784 9.85852 8.41651C10.0084 8.41685 10.1522 8.35787 10.2587 8.25244L13.068 5.44316C13.665 4.8454 14.0003 4.03503 14 3.19018C13.9998 2.34534 13.664 1.53517 13.0666 0.937763H13.066ZM4.88224 3.39355C4.95645 3.39382 5.02997 3.37941 5.09859 3.35115C5.1672 3.3229 5.22955 3.28135 5.28206 3.22891C5.33456 3.17647 5.37617 3.11417 5.40451 3.04559C5.43285 2.97701 5.44734 2.9035 5.44717 2.82929L5.44517 0.564259C5.44534 0.490111 5.43087 0.416658 5.40257 0.348119C5.37428 0.279581 5.33272 0.217308 5.28029 0.164877C5.22786 0.112445 5.16559 0.0708892 5.09705 0.0425949C5.02851 0.0143006 4.95506 -0.000174333 4.88091 1.58441e-06C4.80676 -0.000174331 4.73331 0.0143006 4.66477 0.0425949C4.59623 0.0708892 4.53396 0.112445 4.48152 0.164877C4.42909 0.217308 4.38754 0.279581 4.35924 0.348119C4.33095 0.416658 4.31647 0.490111 4.31665 0.564259V2.83063C4.31645 2.90467 4.3311 2.978 4.35974 3.04628C4.38838 3.11456 4.43043 3.1764 4.48339 3.22814C4.53586 3.2806 4.59815 3.3222 4.6667 3.35059C4.73525 3.37897 4.80872 3.39357 4.88291 3.39355H4.88224ZM11.644 10.8323C11.5917 10.7801 11.5296 10.7389 11.4612 10.711C11.3929 10.683 11.3197 10.669 11.2458 10.6695C11.1341 10.6693 11.0249 10.7023 10.932 10.7642C10.839 10.8261 10.7665 10.9142 10.7237 11.0173C10.6808 11.1204 10.6696 11.2339 10.6913 11.3435C10.713 11.453 10.7667 11.5537 10.8456 11.6327L12.4477 13.2334C12.5 13.2862 12.5622 13.3281 12.6308 13.3567C12.6994 13.3853 12.7729 13.4 12.8472 13.4C12.9215 13.4 12.9951 13.3853 13.0637 13.3567C13.1322 13.3281 13.1945 13.2862 13.2467 13.2334C13.2995 13.1811 13.3414 13.1189 13.37 13.0503C13.3986 12.9817 13.4134 12.9082 13.4134 12.8339C13.4134 12.7596 13.3986 12.686 13.37 12.6174C13.3414 12.5489 13.2995 12.4866 13.2467 12.4344L11.644 10.8323ZM13.4341 8.55124H11.1671C11.0931 8.55122 11.0199 8.56602 10.9517 8.59477C10.8836 8.62352 10.8219 8.66565 10.7703 8.71865C10.6909 8.79719 10.6366 8.89757 10.6145 9.00702C10.5923 9.11647 10.6031 9.23004 10.6457 9.3333C10.6882 9.43655 10.7605 9.52481 10.8534 9.58687C10.9462 9.64892 11.0554 9.68195 11.1671 9.68176L13.4328 9.67976C13.507 9.67993 13.5804 9.66546 13.649 9.63717C13.7175 9.60887 13.7798 9.56732 13.8322 9.51488C13.8846 9.46245 13.9262 9.40018 13.9545 9.33164C13.9828 9.2631 13.9972 9.18965 13.9971 9.1155C13.9976 9.04137 13.9834 8.96786 13.9553 8.89925C13.9272 8.83064 13.8858 8.76829 13.8335 8.7158C13.7811 8.66332 13.7188 8.62175 13.6503 8.5935C13.5818 8.56525 13.5083 8.55089 13.4341 8.55124ZM9.12085 10.6135C9.0467 10.6133 8.97324 10.6278 8.90471 10.6561C8.83617 10.6844 8.77389 10.726 8.72146 10.7784C8.66903 10.8308 8.62747 10.8931 8.59918 10.9616C8.57089 11.0302 8.55641 11.1036 8.55659 11.1778L8.55859 13.4428C8.55841 13.517 8.57289 13.5904 8.60118 13.659C8.62948 13.7275 8.67103 13.7898 8.72346 13.8422C8.77589 13.8946 8.83817 13.9362 8.90671 13.9645C8.97524 13.9928 9.0487 14.0072 9.12285 14.0071C9.19699 14.0072 9.27045 13.9928 9.33899 13.9645C9.40753 13.9362 9.4698 13.8946 9.52223 13.8422C9.57466 13.7898 9.61622 13.7275 9.64451 13.659C9.67281 13.5904 9.68728 13.517 9.6871 13.4428V11.1758C9.68722 11.1018 9.67252 11.0286 9.64388 10.9605C9.61525 10.8923 9.57325 10.8306 9.52036 10.7789C9.46789 10.7265 9.4056 10.6849 9.33706 10.6565C9.26851 10.6281 9.19504 10.6135 9.12085 10.6135ZM7.45008 9.46299L4.64213 12.2716C4.45163 12.4632 4.22506 12.6152 3.9755 12.7188C3.72595 12.8224 3.45834 12.8756 3.18813 12.8752C2.91796 12.876 2.65033 12.8231 2.40082 12.7194C2.15131 12.6158 1.92491 12.4636 1.7348 12.2716C1.54316 12.0812 1.39104 11.8547 1.2872 11.6053C1.18336 11.3559 1.12984 11.0884 1.12971 10.8182C1.12959 10.548 1.18286 10.2805 1.28648 10.031C1.39009 9.78148 1.542 9.5549 1.73347 9.36428L4.54275 6.555C4.59545 6.50273 4.63727 6.44055 4.66581 6.37203C4.69435 6.30352 4.70905 6.23003 4.70905 6.15581C4.70905 6.08159 4.69435 6.00811 4.66581 5.9396C4.63727 5.87108 4.59545 5.8089 4.54275 5.75663C4.49047 5.70384 4.42825 5.66193 4.35967 5.63333C4.2911 5.60473 4.21754 5.59 4.14324 5.59C4.06894 5.59 3.99537 5.60473 3.9268 5.63333C3.85823 5.66193 3.796 5.70384 3.74372 5.75663L0.934438 8.56258C0.637324 8.85787 0.401747 9.20917 0.24135 9.59614C0.0809529 9.98311 -0.00107713 10.3981 1.06788e-05 10.8169C1.06788e-05 11.6667 0.331496 12.469 0.934438 13.0693C1.23001 13.3656 1.58121 13.6005 1.96785 13.7606C2.3545 13.9208 2.76897 14.0029 3.18747 14.0024C4.00317 14.0024 4.82088 13.6909 5.43983 13.0686L8.25045 10.2614C8.30314 10.2091 8.34496 10.1469 8.37351 10.0784C8.40205 10.0099 8.41674 9.93639 8.41674 9.86217C8.41674 9.78796 8.40205 9.71447 8.37351 9.64596C8.34496 9.57745 8.30314 9.51526 8.25045 9.46299C8.14419 9.3571 8.00028 9.29764 7.85027 9.29764C7.70025 9.29764 7.55634 9.3571 7.45008 9.46299ZM2.35976 3.17479C2.47247 3.28417 2.6132 3.33886 2.75794 3.33753C2.86961 3.33773 2.97883 3.3048 3.07178 3.2429C3.16472 3.18099 3.23721 3.0929 3.28006 2.98978C3.32291 2.88666 3.33419 2.77314 3.31249 2.66359C3.29078 2.55405 3.23706 2.45341 3.15812 2.37442L1.55672 0.775022C1.50444 0.722228 1.44222 0.68032 1.37364 0.651719C1.30507 0.623118 1.23151 0.608391 1.15721 0.608391C1.08291 0.608391 1.00934 0.623118 0.94077 0.651719C0.872196 0.68032 0.80997 0.722228 0.75769 0.775022C0.704896 0.827302 0.662987 0.889528 0.634386 0.958102C0.605785 1.02668 0.591059 1.10024 0.591059 1.17454C0.591059 1.24884 0.605785 1.3224 0.634386 1.39097C0.662987 1.45955 0.704896 1.52177 0.75769 1.57405L2.36042 3.17479H2.35976ZM0.569604 5.45716H2.83731C2.91124 5.45728 2.98444 5.44258 3.0526 5.41394C3.12076 5.3853 3.18249 5.3433 3.23416 5.29042C3.31378 5.21192 3.36822 5.11148 3.39053 5.00192C3.41285 4.89235 3.40203 4.77863 3.35946 4.67523C3.31688 4.57184 3.24448 4.48347 3.15149 4.42139C3.0585 4.35931 2.94912 4.32632 2.83731 4.32665L0.571605 4.32865C0.497456 4.32847 0.424003 4.34295 0.355465 4.37124C0.286927 4.39953 0.224654 4.44109 0.172222 4.49352C0.119791 4.54595 0.0782349 4.60823 0.0499406 4.67676C0.0216463 4.7453 0.00717144 4.81876 0.00734735 4.8929C0.00663719 4.96709 0.0207029 5.04067 0.0487243 5.10936C0.0767458 5.17806 0.118162 5.24048 0.170559 5.293C0.222955 5.34552 0.285284 5.38709 0.353909 5.41527C0.422535 5.44346 0.496085 5.4577 0.570271 5.45716H0.569604Z" fill="#FFF5F5"/>
</svg>
