<svg width="514" height="514" viewBox="0 0 514 514" fill="none" xmlns="http://www.w3.org/2000/svg">
<g style="mix-blend-mode:luminosity">
<circle cx="256.636" cy="257.491" r="130.647" fill="#D9D9D9"/>
<path d="M264.017 108.424L264.018 108.424C342.979 112.156 405.862 177.347 405.862 257.238C405.862 339.513 339.16 406.225 256.882 406.225C174.604 406.225 107.903 339.513 107.903 257.238C107.903 174.961 170.764 112.157 249.745 108.424C252.116 108.323 254.499 108.266 256.882 108.266C259.268 108.266 261.651 108.309 264.017 108.424Z" fill="#A08CFF" fill-opacity="0.1" stroke="url(#paint0_linear_14058_3256)" stroke-width="1.15287"/>
<path d="M257.128 392.067C331.452 392.067 391.703 331.815 391.703 257.491C391.703 183.167 331.452 122.915 257.128 122.915C182.803 122.915 122.552 183.167 122.552 257.491C122.552 331.815 182.803 392.067 257.128 392.067Z" fill="url(#paint1_linear_14058_3256)"/>
<path d="M378.008 146.963L378.009 146.963C436.555 211.32 434.759 310.992 372.584 373.167C308.554 437.197 204.726 437.205 140.693 373.173C76.6604 309.14 76.669 205.311 140.699 141.282C204.731 77.2493 302.527 77.2933 366.901 135.855C368.824 137.622 370.724 139.433 372.578 141.287C374.436 143.144 376.256 145.032 378.008 146.963Z" stroke="url(#paint2_linear_14058_3256)" stroke-width="1.62798"/>
<path d="M378.662 390.915L378.662 390.916C307.655 455.513 197.682 453.531 129.082 384.931C58.4351 314.284 58.4256 199.726 129.076 129.076C199.726 58.4256 314.284 58.4352 384.931 129.082C455.58 199.731 455.531 307.635 390.917 378.66C388.968 380.782 386.97 382.878 384.924 384.924C382.876 386.973 380.793 388.982 378.662 390.915Z" stroke="url(#paint3_linear_14058_3256)" stroke-width="1.62798"/>
<path d="M352.795 345.442C345.708 353.147 337.475 360.239 328.777 366.059L256.39 257.267L352.795 345.442Z" fill="url(#paint4_linear_14058_3256)"/>
<path d="M328.828 366.123C320.168 371.9 310.849 376.622 301.068 380.188L256.319 257.444L328.828 366.123Z" fill="#013C31"/>
<path d="M301.182 379.776C291.404 383.348 281.234 385.739 270.888 386.897L256.353 257.061L301.182 379.776Z" fill="url(#paint5_linear_14058_3256)"/>
<path d="M270.784 387.293C260.438 388.45 249.991 388.367 239.666 387.045L256.256 257.457L270.784 387.293Z" fill="#013C31"/>
<path d="M239.73 386.617C229.404 385.294 219.273 382.742 209.553 379.016L256.325 257.028L239.73 386.617Z" fill="url(#paint6_linear_14058_3256)"/>
<path d="M209.559 379.044C199.839 375.317 190.599 370.441 182.036 364.52L256.338 257.059L209.559 379.044Z" fill="#013C31"/>
<path d="M181.9 364.881C173.333 358.966 165.504 352.049 158.58 344.276L256.131 257.372L181.9 364.881Z" fill="url(#paint7_linear_14058_3256)"/>
<path d="M158.807 344.045C151.883 336.271 145.913 327.698 141.024 318.508L256.364 257.147L158.807 344.045Z" fill="#013C31"/>
<path d="M140.913 318.669C136.031 309.474 132.265 299.729 129.696 289.641L256.302 257.399L140.913 318.669Z" fill="url(#paint8_linear_14058_3256)"/>
<path d="M129.829 289.654C127.26 279.565 125.907 269.206 125.797 258.797L256.436 257.419L129.829 289.654Z" fill="#013C31"/>
<path d="M125.525 258.46C125.408 248.051 126.536 237.665 128.885 227.523L256.163 256.997L125.525 258.46Z" fill="url(#paint9_linear_14058_3256)"/>
<path d="M129.304 227.928C131.653 217.787 135.206 207.962 139.887 198.664L256.581 257.411L129.304 227.928Z" fill="#013C31"/>
<path d="M139.468 198.641C144.149 189.343 149.925 180.637 156.672 172.71L256.159 257.391L139.468 198.641Z" fill="url(#paint10_linear_14058_3256)"/>
<path d="M157.094 172.326C163.842 164.4 171.514 157.308 179.945 151.202L256.576 257.014L157.094 172.326Z" fill="#013C31"/>
<path d="M179.528 151.485C187.956 145.373 197.083 140.291 206.717 136.345L256.229 257.247L179.528 151.485Z" fill="url(#paint11_linear_14058_3256)"/>
<path d="M206.823 136.117C216.457 132.173 226.528 129.394 236.822 127.839L256.328 257.022L206.823 136.117Z" fill="#013C31"/>
<path d="M277.756 128.36C288.024 130.075 298.051 133.011 307.622 137.106L256.235 257.222L277.756 128.36Z" fill="#013C31"/>
<path d="M307.875 137.124C317.451 141.207 326.505 146.419 334.844 152.65L256.64 257.305L307.875 137.124Z" fill="url(#paint12_linear_14058_3256)"/>
<path d="M334.507 152.432C342.846 158.664 350.41 165.87 357.038 173.898L256.297 257.082L334.507 152.432Z" fill="#013C31"/>
<path d="M357.078 173.995C363.712 182.018 369.363 190.805 373.911 200.169L256.392 257.246L357.078 173.995Z" fill="url(#paint13_linear_14058_3256)"/>
<path d="M373.9 199.972C378.448 209.337 381.859 219.211 384.063 229.385L256.377 257.042L373.9 199.972Z" fill="#013C31"/>
<path d="M383.966 229.678C386.17 239.852 387.149 250.253 386.884 260.66L256.28 257.33L383.966 229.678Z" fill="url(#paint14_linear_14058_3256)"/>
<path d="M386.807 260.686C386.541 271.092 385.032 281.43 382.312 291.479L256.203 257.348L386.807 260.686Z" fill="#013C31"/>
<path d="M382.515 291.113C379.802 301.163 375.898 310.853 370.885 319.977L256.384 257.065L382.515 291.113Z" fill="url(#paint15_linear_14058_3256)"/>
<path d="M371.14 320.031C366.126 329.154 360.04 337.645 353.011 345.324L256.642 257.111L371.14 320.031Z" fill="#013C31"/>
<g filter="url(#filter0_di_14058_3256)">
<path d="M237.226 128.755C251.05 126.64 265.124 126.758 278.91 129.105L256.985 257.899L237.226 128.755Z" fill="url(#paint16_linear_14058_3256)" shape-rendering="crispEdges"/>
</g>
<g filter="url(#filter1_b_14058_3256)">
<circle cx="256.017" cy="257.983" r="116.461" stroke="black" stroke-opacity="0.74" stroke-width="29.4837"/>
</g>
<path style="mix-blend-mode:multiply" d="M257.127 388.138C329.281 388.138 387.774 329.645 387.774 257.491C387.774 185.337 329.281 126.845 257.127 126.845C184.973 126.845 126.48 185.337 126.48 257.491C126.48 329.645 184.973 388.138 257.127 388.138Z" fill="url(#paint17_radial_14058_3256)"/>
<path d="M263.342 117.084L263.347 117.084C337.582 120.593 396.701 181.884 396.701 256.994C396.701 334.345 333.991 397.065 256.636 397.065C179.282 397.065 116.571 334.345 116.571 256.994C116.571 179.625 175.633 120.6 249.916 117.084C252.154 116.99 254.399 116.936 256.636 116.936C258.893 116.936 261.131 116.976 263.342 117.084Z" stroke="#03D9AF" stroke-width="7.68581"/>
<path style="mix-blend-mode:multiply" opacity="0.6" d="M252.461 304.151C275.383 304.151 293.964 285.57 293.964 262.648C293.964 239.727 275.383 221.146 252.461 221.146C229.54 221.146 210.959 239.727 210.959 262.648C210.959 285.57 229.54 304.151 252.461 304.151Z" fill="url(#paint18_radial_14058_3256)"/>
<path d="M280.583 277.571C292.767 265.396 292.767 245.657 280.583 233.481C268.399 221.306 248.644 221.306 236.459 233.481C224.275 245.657 224.275 265.396 236.459 277.571C248.644 289.746 268.399 289.746 280.583 277.571Z" fill="url(#paint19_linear_14058_3256)"/>
<path d="M280.159 273.744C290.149 261.943 288.676 244.286 276.868 234.304C265.06 224.323 247.388 225.797 237.398 237.598C227.407 249.398 228.881 267.056 240.689 277.037C252.497 287.019 270.168 285.544 280.159 273.744Z" fill="url(#paint20_linear_14058_3256)"/>
<g opacity="0.74" filter="url(#filter2_f_14058_3256)">
<path d="M247.634 251.806C249.087 251.806 249.482 251.34 249.482 250.903C249.482 250.522 249.2 250.226 248.537 250.07L246.843 249.661C245.277 249.28 244.078 248.434 244.078 246.741C244.078 244.878 245.686 243.735 247.761 243.735C249.962 243.735 251.119 244.906 251.542 246.077L249.623 247.009C249.468 246.402 248.917 245.697 247.761 245.697C246.716 245.697 246.237 246.176 246.237 246.684C246.237 247.122 246.589 247.376 247.14 247.503L249.171 247.996C250.794 248.391 251.669 249.393 251.669 250.776C251.669 252.342 250.455 253.866 247.563 253.866C245.263 253.866 244.007 252.568 243.584 251.495L245.39 250.451C245.672 251.256 246.618 251.806 247.634 251.806ZM252.721 253.739V243.862H256.643C258.816 243.862 260.185 245.287 260.185 246.98C260.185 249.125 258.816 250.437 256.643 250.437H254.837V253.739H252.721ZM254.837 248.532H256.643C257.476 248.532 258.068 247.954 258.068 247.15C258.068 246.346 257.476 245.767 256.643 245.767H254.837V248.532ZM261.168 253.739V243.862H263.284V253.739H261.168ZM264.971 253.739V243.862H267.299L271.419 250.268V243.862H273.479V253.739H271.137L267.017 247.234V253.739H264.971ZM243.069 267.739V257.862H245.397L249.517 264.268V257.862H251.577V267.739H249.235L245.115 261.234V267.739H243.069ZM257.639 267.866C254.662 267.866 252.49 265.693 252.49 262.801C252.49 259.894 254.662 257.735 257.639 257.735C260.616 257.735 262.789 259.894 262.789 262.801C262.789 265.693 260.616 267.866 257.639 267.866ZM254.676 262.801C254.676 264.621 256.031 265.806 257.639 265.806C259.248 265.806 260.602 264.621 260.602 262.801C260.602 260.98 259.248 259.795 257.639 259.795C256.031 259.795 254.676 260.98 254.676 262.801ZM264.853 267.739L262.723 257.862H264.966L266.278 264.691L267.816 257.862H270.497L272.063 264.691L273.361 257.862H275.618L273.46 267.739H270.737L269.17 260.698L267.562 267.739H264.853Z" fill="#03D9AF"/>
</g>
<path d="M248.496 251.954C249.838 251.954 250.202 251.525 250.202 251.121C250.202 250.769 249.942 250.496 249.33 250.353L247.767 249.975C246.321 249.623 245.214 248.842 245.214 247.279C245.214 245.56 246.699 244.505 248.613 244.505C250.645 244.505 251.713 245.586 252.104 246.667L250.332 247.526C250.189 246.966 249.681 246.315 248.613 246.315C247.65 246.315 247.207 246.758 247.207 247.227C247.207 247.631 247.532 247.865 248.04 247.982L249.916 248.438C251.413 248.803 252.221 249.727 252.221 251.004C252.221 252.449 251.101 253.856 248.431 253.856C246.308 253.856 245.149 252.658 244.758 251.668L246.425 250.704C246.686 251.447 247.558 251.954 248.496 251.954ZM253.192 253.739V244.622H256.813C258.819 244.622 260.082 245.937 260.082 247.5C260.082 249.48 258.819 250.691 256.813 250.691H255.146V253.739H253.192ZM255.146 248.933H256.813C257.581 248.933 258.128 248.399 258.128 247.657C258.128 246.914 257.581 246.38 256.813 246.38H255.146V248.933ZM260.989 253.739V244.622H262.943V253.739H260.989ZM264.5 253.739V244.622H266.649L270.452 250.535V244.622H272.354V253.739H270.192L266.389 247.735V253.739H264.5ZM244.283 266.739V257.622H246.432L250.234 263.535V257.622H252.136V266.739H249.974L246.171 260.735V266.739H244.283ZM257.732 266.856C254.984 266.856 252.979 264.85 252.979 262.18C252.979 259.497 254.984 257.505 257.732 257.505C260.48 257.505 262.486 259.497 262.486 262.18C262.486 264.85 260.48 266.856 257.732 266.856ZM254.997 262.18C254.997 263.86 256.248 264.954 257.732 264.954C259.217 264.954 260.467 263.86 260.467 262.18C260.467 260.5 259.217 259.406 257.732 259.406C256.248 259.406 254.997 260.5 254.997 262.18ZM264.391 266.739L262.424 257.622H264.495L265.706 263.926L267.126 257.622H269.601L271.046 263.926L272.244 257.622H274.328L272.336 266.739H269.822L268.376 260.24L266.892 266.739H264.391Z" fill="#F7F7F7"/>
<g opacity="0.64" filter="url(#filter3_f_14058_3256)">
<path d="M255.366 134.676C255.795 135.509 256.986 135.509 257.416 134.676L271.475 107.403C271.87 106.635 271.313 105.721 270.45 105.721H242.332C241.468 105.721 240.911 106.635 241.307 107.403L255.366 134.676Z" fill="#CCAC00"/>
</g>
<g filter="url(#filter4_d_14058_3256)">
<path d="M255.257 133.743C255.991 135.155 258.011 135.155 258.745 133.743L270.829 110.488C271.509 109.179 270.559 107.616 269.085 107.616H244.917C243.442 107.616 242.493 109.179 243.173 110.488L255.257 133.743Z" fill="#FFD700"/>
<path d="M255.911 133.403C256.369 134.286 257.632 134.286 258.091 133.403L270.175 110.148C270.6 109.33 270.006 108.353 269.085 108.353H244.917C243.995 108.353 243.402 109.33 243.827 110.148L255.911 133.403L255.257 133.743L255.911 133.403Z" stroke="url(#paint21_linear_14058_3256)" stroke-width="1.47419"/>
</g>
<g filter="url(#filter5_f_14058_3256)">
<ellipse cx="312.873" cy="387.892" rx="9.57747" ry="4.1748" fill="#D9D9D9"/>
</g>
<g filter="url(#filter6_f_14058_3256)">
<ellipse cx="306.734" cy="389.12" rx="6.87614" ry="5.40268" fill="#D9D9D9"/>
</g>
<g filter="url(#filter7_d_14058_3256)">
<ellipse cx="305.505" cy="388.383" rx="2.70134" ry="2.70134" fill="#F4F4F4"/>
</g>
<g filter="url(#filter8_f_14058_3256)">
<ellipse cx="366.41" cy="351.546" rx="9.57747" ry="4.1748" fill="#D9D9D9"/>
</g>
<g filter="url(#filter9_f_14058_3256)">
<ellipse cx="360.27" cy="352.774" rx="6.87614" ry="5.40268" fill="#D9D9D9"/>
</g>
<g filter="url(#filter10_d_14058_3256)">
<ellipse cx="359.042" cy="352.037" rx="2.70134" ry="2.70134" fill="#F4F4F4"/>
</g>
<g filter="url(#filter11_f_14058_3256)">
<ellipse cx="399.808" cy="292.117" rx="9.57747" ry="4.1748" fill="#D9D9D9"/>
</g>
<g filter="url(#filter12_f_14058_3256)">
<ellipse cx="393.668" cy="293.345" rx="6.87614" ry="5.40268" fill="#D9D9D9"/>
</g>
<g filter="url(#filter13_d_14058_3256)">
<ellipse cx="392.441" cy="292.608" rx="2.70134" ry="2.70134" fill="#F4F4F4"/>
</g>
<g filter="url(#filter14_f_14058_3256)">
<ellipse cx="400.79" cy="226.793" rx="9.57747" ry="4.1748" fill="#D9D9D9"/>
</g>
<g filter="url(#filter15_f_14058_3256)">
<ellipse cx="394.651" cy="228.021" rx="6.87614" ry="5.40268" fill="#D9D9D9"/>
</g>
<g filter="url(#filter16_d_14058_3256)">
<ellipse cx="393.422" cy="227.285" rx="2.70134" ry="2.70134" fill="#F4F4F4"/>
</g>
<g filter="url(#filter17_f_14058_3256)">
<ellipse cx="372.304" cy="167.855" rx="9.57747" ry="4.1748" fill="#D9D9D9"/>
</g>
<g filter="url(#filter18_f_14058_3256)">
<ellipse cx="366.164" cy="169.083" rx="6.87614" ry="5.40268" fill="#D9D9D9"/>
</g>
<g filter="url(#filter19_d_14058_3256)">
<ellipse cx="364.937" cy="168.346" rx="2.70134" ry="2.70134" fill="#F4F4F4"/>
</g>
<g filter="url(#filter20_f_14058_3256)">
<ellipse cx="318.277" cy="127.581" rx="9.57747" ry="4.1748" fill="#D9D9D9"/>
</g>
<g filter="url(#filter21_f_14058_3256)">
<ellipse cx="312.137" cy="128.809" rx="6.87614" ry="5.40268" fill="#D9D9D9"/>
</g>
<g filter="url(#filter22_d_14058_3256)">
<ellipse cx="310.909" cy="128.072" rx="2.70134" ry="2.70134" fill="#F4F4F4"/>
</g>
<g filter="url(#filter23_f_14058_3256)">
<ellipse cx="9.57747" cy="3.92922" rx="9.57747" ry="3.92922" transform="matrix(-1 8.7445e-08 8.74006e-08 1 241.41 391.084)" fill="#D9D9D9"/>
</g>
<g filter="url(#filter24_f_14058_3256)">
<ellipse cx="6.87614" cy="5.40268" rx="6.87614" ry="5.40268" transform="matrix(-1 8.7445e-08 8.74006e-08 1 244.849 391.084)" fill="#D9D9D9"/>
</g>
<g filter="url(#filter25_d_14058_3256)">
<ellipse cx="2.70134" cy="2.70134" rx="2.70134" ry="2.70134" transform="matrix(-1 8.7445e-08 8.74006e-08 1 241.901 393.048)" fill="#F4F4F4"/>
</g>
<g filter="url(#filter26_f_14058_3256)">
<ellipse cx="9.57747" cy="4.1748" rx="9.57747" ry="4.1748" transform="matrix(-1 8.7445e-08 8.74006e-08 1 180.017 367.509)" fill="#D9D9D9"/>
</g>
<g filter="url(#filter27_f_14058_3256)">
<ellipse cx="6.87614" cy="5.40268" rx="6.87614" ry="5.40268" transform="matrix(-1 8.7445e-08 8.74006e-08 1 183.455 367.509)" fill="#D9D9D9"/>
</g>
<g filter="url(#filter28_d_14058_3256)">
<ellipse cx="2.70134" cy="2.70134" rx="2.70134" ry="2.70134" transform="matrix(-1 8.7445e-08 8.74006e-08 1 180.508 369.473)" fill="#F4F4F4"/>
</g>
<g filter="url(#filter29_f_14058_3256)">
<ellipse cx="9.57747" cy="4.1748" rx="9.57747" ry="4.1748" transform="matrix(-1 8.7445e-08 8.74006e-08 1 136.304 319.867)" fill="#D9D9D9"/>
</g>
<g filter="url(#filter30_f_14058_3256)">
<ellipse cx="6.87614" cy="5.40268" rx="6.87614" ry="5.40268" transform="matrix(-1 8.7445e-08 8.74006e-08 1 139.742 319.867)" fill="#D9D9D9"/>
</g>
<g filter="url(#filter31_d_14058_3256)">
<ellipse cx="2.70134" cy="2.70134" rx="2.70134" ry="2.70134" transform="matrix(-1 8.7445e-08 8.74006e-08 1 136.795 321.832)" fill="#F4F4F4"/>
</g>
<g filter="url(#filter32_f_14058_3256)">
<ellipse cx="9.57747" cy="4.1748" rx="9.57747" ry="4.1748" transform="matrix(-1 8.7445e-08 8.74006e-08 1 119.113 254.544)" fill="#D9D9D9"/>
</g>
<g filter="url(#filter33_f_14058_3256)">
<ellipse cx="6.87614" cy="5.40268" rx="6.87614" ry="5.40268" transform="matrix(-1 8.7445e-08 8.74006e-08 1 122.552 254.544)" fill="#D9D9D9"/>
</g>
<g filter="url(#filter34_d_14058_3256)">
<ellipse cx="2.70134" cy="2.70134" rx="2.70134" ry="2.70134" transform="matrix(-1 8.7445e-08 8.74006e-08 1 119.604 256.508)" fill="#F4F4F4"/>
</g>
<g filter="url(#filter35_f_14058_3256)">
<ellipse cx="9.57747" cy="4.1748" rx="9.57747" ry="4.1748" transform="matrix(-1 8.7445e-08 8.74006e-08 1 134.339 189.712)" fill="#D9D9D9"/>
</g>
<g filter="url(#filter36_f_14058_3256)">
<ellipse cx="6.87614" cy="5.40268" rx="6.87614" ry="5.40268" transform="matrix(-1 8.7445e-08 8.74006e-08 1 137.777 189.712)" fill="#D9D9D9"/>
</g>
<g filter="url(#filter37_d_14058_3256)">
<ellipse cx="2.70134" cy="2.70134" rx="2.70134" ry="2.70134" transform="matrix(-1 8.7445e-08 8.74006e-08 1 134.83 191.677)" fill="#F4F4F4"/>
</g>
<g filter="url(#filter38_f_14058_3256)">
<ellipse cx="9.57747" cy="4.1748" rx="9.57747" ry="4.1748" transform="matrix(-1 8.74883e-08 8.73573e-08 1 236.499 114.074)" fill="#D9D9D9"/>
</g>
<g filter="url(#filter39_f_14058_3256)">
<ellipse cx="6.87614" cy="5.40268" rx="6.87614" ry="5.40268" transform="matrix(-1 8.74883e-08 8.73573e-08 1 239.938 114.074)" fill="#D9D9D9"/>
</g>
<g filter="url(#filter40_d_14058_3256)">
<ellipse cx="2.70134" cy="2.70134" rx="2.70134" ry="2.70134" transform="matrix(-1 8.7445e-08 8.74006e-08 1 236.99 116.039)" fill="#F4F4F4"/>
</g>
<g filter="url(#filter41_f_14058_3256)">
<ellipse cx="9.57747" cy="4.1748" rx="9.57747" ry="4.1748" transform="matrix(-1 8.7445e-08 8.74006e-08 1 175.106 139.614)" fill="#D9D9D9"/>
</g>
<g filter="url(#filter42_f_14058_3256)">
<ellipse cx="6.87614" cy="5.40268" rx="6.87614" ry="5.40268" transform="matrix(-1 8.7445e-08 8.74006e-08 1 178.544 139.614)" fill="#D9D9D9"/>
</g>
<g filter="url(#filter43_d_14058_3256)">
<ellipse cx="2.70134" cy="2.70134" rx="2.70134" ry="2.70134" transform="matrix(-1 8.7445e-08 8.74006e-08 1 175.597 141.579)" fill="#F4F4F4"/>
</g>
<path d="M256.508 137.099C255.439 137.099 254.394 137.416 253.505 138.01C252.616 138.604 251.923 139.448 251.514 140.436C251.105 141.424 250.998 142.51 251.206 143.559C251.415 144.608 251.93 145.571 252.686 146.327C253.442 147.083 254.405 147.597 255.453 147.806C256.502 148.015 257.589 147.907 258.576 147.498C259.564 147.089 260.408 146.396 261.002 145.508C261.596 144.619 261.913 143.574 261.913 142.504C261.913 141.071 261.344 139.696 260.33 138.682C259.316 137.669 257.941 137.099 256.508 137.099ZM260.145 142.805H252.872V142.204H260.145V142.805Z" fill="white"/>
<path d="M196.723 151.336C195.787 151.852 195.024 152.634 194.532 153.583C194.04 154.532 193.84 155.605 193.958 156.668C194.076 157.73 194.507 158.734 195.195 159.552C195.884 160.37 196.799 160.965 197.826 161.263C198.853 161.56 199.945 161.547 200.964 161.224C201.983 160.901 202.884 160.282 203.551 159.448C204.219 158.613 204.625 157.599 204.716 156.534C204.808 155.468 204.581 154.4 204.065 153.464C203.374 152.208 202.212 151.278 200.835 150.879C199.458 150.48 197.979 150.645 196.723 151.336ZM202.661 154.58L196.29 158.088L196.001 157.562L202.372 154.053L202.661 154.58Z" fill="white"/>
<path d="M153.288 190.772C152.784 191.714 152.571 192.785 152.676 193.849C152.781 194.913 153.199 195.922 153.877 196.749C154.555 197.575 155.463 198.182 156.486 198.492C157.509 198.803 158.601 198.803 159.624 198.492C160.647 198.182 161.555 197.575 162.234 196.749C162.912 195.923 163.33 194.914 163.435 193.85C163.54 192.786 163.327 191.715 162.823 190.772C162.319 189.829 161.547 189.057 160.604 188.553C159.339 187.877 157.858 187.731 156.487 188.147C155.115 188.563 153.964 189.507 153.288 190.772ZM160.035 190.254L156.606 196.668L156.077 196.385L159.505 189.971L160.035 190.254Z" fill="white"/>
<path d="M135.122 244.884C134.975 245.943 135.146 247.022 135.613 247.984C136.079 248.946 136.82 249.748 137.743 250.289C138.665 250.829 139.727 251.085 140.794 251.022C141.861 250.959 142.886 250.581 143.738 249.936C144.591 249.291 145.233 248.407 145.583 247.397C145.934 246.387 145.977 245.296 145.707 244.261C145.437 243.227 144.866 242.296 144.067 241.586C143.268 240.875 142.277 240.418 141.218 240.271C139.798 240.075 138.358 240.45 137.214 241.316C136.071 242.181 135.319 243.464 135.122 244.884ZM141.273 242.064L140.275 249.269L139.68 249.186L140.678 241.982L141.273 242.064Z" fill="white"/>
<path d="M151.297 296.377C150.763 295.452 149.966 294.705 149.007 294.232C148.048 293.759 146.971 293.581 145.911 293.721C144.851 293.861 143.856 294.311 143.052 295.016C142.248 295.721 141.672 296.648 141.395 297.681C141.118 298.714 141.154 299.805 141.498 300.818C141.841 301.83 142.478 302.718 143.326 303.368C144.174 304.019 145.196 304.404 146.263 304.474C147.329 304.544 148.393 304.296 149.319 303.761C150.56 303.045 151.466 301.864 151.837 300.479C152.208 299.094 152.014 297.619 151.297 296.377ZM148.175 302.38L144.538 296.081L145.058 295.781L148.695 302.08L148.175 302.38Z" fill="white"/>
<path d="M181.216 341.426C180.46 340.67 179.497 340.155 178.448 339.946C177.4 339.738 176.313 339.845 175.325 340.254C174.337 340.663 173.493 341.356 172.899 342.245C172.305 343.134 171.988 344.179 171.988 345.248C171.988 346.317 172.305 347.362 172.899 348.251C173.493 349.14 174.337 349.833 175.325 350.242C176.313 350.651 177.4 350.758 178.448 350.549C179.497 350.341 180.46 349.826 181.216 349.07C182.229 348.056 182.799 346.681 182.799 345.248C182.799 343.814 182.229 342.439 181.216 341.426ZM179.753 348.032L174.61 342.889L175.035 342.464L180.178 347.607L179.753 348.032Z" fill="white"/>
<path d="M228.568 366.164C227.535 365.887 226.444 365.923 225.431 366.266C224.419 366.61 223.531 367.246 222.88 368.094C222.23 368.942 221.845 369.965 221.775 371.031C221.705 372.098 221.953 373.162 222.488 374.088C223.022 375.013 223.819 375.76 224.778 376.233C225.737 376.706 226.814 376.883 227.874 376.744C228.934 376.604 229.929 376.154 230.733 375.449C231.537 374.744 232.113 373.816 232.39 372.784C232.761 371.399 232.567 369.924 231.85 368.682C231.133 367.441 229.953 366.535 228.568 366.164ZM230.604 372.616L223.579 370.734L223.734 370.154L230.76 372.036L230.604 372.616Z" fill="white"/>
<path d="M283.5 365.435C282.468 365.712 281.54 366.288 280.836 367.092C280.131 367.896 279.68 368.891 279.54 369.951C279.401 371.011 279.579 372.088 280.052 373.047C280.524 374.006 281.271 374.803 282.197 375.337C283.123 375.872 284.186 376.12 285.253 376.05C286.32 375.98 287.342 375.595 288.19 374.944C289.038 374.294 289.674 373.406 290.018 372.394C290.362 371.381 290.397 370.29 290.121 369.257C289.75 367.872 288.844 366.692 287.602 365.975C286.361 365.258 284.885 365.064 283.5 365.435ZM288.49 370.005L281.465 371.887L281.31 371.307L288.335 369.425L288.49 370.005Z" fill="white"/>
<path d="M329.371 341.373C328.573 342.083 328.003 343.015 327.733 344.049C327.464 345.084 327.508 346.175 327.859 347.185C328.209 348.195 328.852 349.078 329.705 349.723C330.558 350.367 331.582 350.745 332.65 350.807C333.717 350.869 334.779 350.614 335.701 350.072C336.623 349.531 337.363 348.729 337.829 347.767C338.295 346.804 338.465 345.726 338.318 344.667C338.171 343.608 337.713 342.616 337.003 341.818C336.05 340.747 334.71 340.098 333.279 340.015C331.848 339.931 330.442 340.42 329.371 341.373ZM335.881 343.217L330.448 348.052L330.048 347.604L335.482 342.769L335.881 343.217Z" fill="white"/>
<path d="M369.77 302.014C370.174 301.024 370.275 299.937 370.061 298.89C369.847 297.842 369.326 296.882 368.566 296.13C367.806 295.378 366.84 294.869 365.791 294.666C364.741 294.463 363.655 294.576 362.669 294.991C361.684 295.405 360.844 296.103 360.254 296.995C359.665 297.887 359.354 298.934 359.36 300.003C359.366 301.072 359.688 302.115 360.287 303.001C360.886 303.886 361.734 304.575 362.724 304.978C364.051 305.52 365.54 305.512 366.861 304.956C368.182 304.4 369.229 303.342 369.77 302.014ZM363.114 303.228L365.86 296.493L366.416 296.72L363.67 303.454L363.114 303.228Z" fill="white"/>
<path d="M377.773 244.952C377.637 243.892 377.19 242.896 376.488 242.089C375.786 241.283 374.86 240.703 373.828 240.423C372.797 240.143 371.705 240.175 370.692 240.515C369.678 240.855 368.788 241.488 368.135 242.334C367.481 243.18 367.093 244.201 367.019 245.267C366.945 246.334 367.19 247.398 367.721 248.326C368.252 249.254 369.047 250.003 370.004 250.479C370.961 250.955 372.038 251.137 373.099 251.001C374.521 250.819 375.812 250.079 376.688 248.945C377.565 247.81 377.955 246.374 377.773 244.952ZM372.576 249.285L371.651 242.071L372.247 241.995L373.172 249.209L372.576 249.285Z" fill="white"/>
<path d="M357.886 191.329C357.279 190.449 356.424 189.769 355.43 189.375C354.436 188.981 353.348 188.891 352.303 189.116C351.257 189.34 350.302 189.87 349.558 190.637C348.814 191.405 348.314 192.376 348.121 193.427C347.929 194.479 348.052 195.564 348.477 196.545C348.901 197.526 349.607 198.36 350.505 198.94C351.402 199.52 352.452 199.821 353.521 199.805C354.59 199.789 355.63 199.456 356.51 198.848C357.69 198.033 358.497 196.784 358.755 195.373C359.013 193.963 358.701 192.508 357.886 191.329ZM355.258 197.564L351.125 191.579L351.619 191.238L355.752 197.223L355.258 197.564Z" fill="white"/>
<path d="M316.306 151.305C315.36 150.809 314.287 150.604 313.224 150.717C312.161 150.83 311.155 151.256 310.334 151.941C309.513 152.625 308.913 153.538 308.611 154.563C308.308 155.589 308.317 156.681 308.635 157.701C308.953 158.722 309.567 159.625 310.399 160.297C311.23 160.969 312.243 161.379 313.307 161.475C314.372 161.572 315.441 161.351 316.38 160.839C317.319 160.328 318.085 159.55 318.582 158.603C319.248 157.334 319.382 155.852 318.956 154.483C318.529 153.114 317.576 151.971 316.306 151.305ZM316.877 158.048L310.436 154.669L310.715 154.137L317.156 157.516L316.877 158.048Z" fill="white"/>
<path d="M228.709 153.718L229.967 150.198L222.417 141.954L218.648 142.718L217.39 146.238L221.159 145.474L228.709 153.718ZM231.213 146.696L232.474 143.178L229.954 140.429L226.187 141.19L224.929 144.71L228.696 143.949L231.213 146.696Z" fill="#00D9AF"/>
<path d="M330.71 180.359L334.436 180.06L338.852 169.792L336.607 166.669L332.881 166.967L335.125 170.09L330.71 180.359ZM338.14 179.758L341.866 179.464L343.337 176.037L341.096 172.915L337.37 173.213L339.611 176.335L338.14 179.758Z" fill="#00D9AF"/>
<path fill-rule="evenodd" clip-rule="evenodd" d="M289.71 140.239C289.727 140.212 289.736 140.18 289.734 140.148C289.735 140.115 289.727 140.082 289.711 140.053C289.695 140.024 289.673 139.999 289.646 139.979C289.618 139.966 289.587 139.957 289.556 139.955L286.552 139.651C286.519 139.646 286.484 139.652 286.455 139.669C286.423 139.684 286.395 139.708 286.376 139.737L282.647 145.937C281.002 148.674 282.21 152.543 285.361 154.029C287.87 155.214 291.009 154.905 292.764 152.016C294.52 149.127 293.442 145.991 291.067 144.563L289.634 143.703C289.614 143.687 289.591 143.675 289.566 143.669C289.542 143.662 289.516 143.661 289.491 143.665C289.44 143.675 289.396 143.706 289.367 143.749L288.155 145.77C288.139 145.79 288.127 145.814 288.12 145.839C288.114 145.864 288.112 145.891 288.116 145.917C288.129 145.967 288.161 146.01 288.205 146.037L289.14 146.599C289.455 146.785 289.729 147.031 289.947 147.324C290.383 147.916 290.568 148.656 290.461 149.384C290.394 149.786 290.239 150.169 290.008 150.504C289.776 150.84 289.474 151.121 289.121 151.327C288.769 151.533 288.376 151.659 287.97 151.696C287.564 151.734 287.155 151.682 286.771 151.543C286.387 151.405 286.039 151.184 285.75 150.896C285.461 150.608 285.239 150.26 285.099 149.877C284.959 149.494 284.905 149.085 284.941 148.678C284.977 148.272 285.102 147.879 285.306 147.526L289.71 140.239Z" fill="url(#paint22_linear_14058_3256)"/>
<path fill-rule="evenodd" clip-rule="evenodd" d="M170.985 168.716C170.966 168.69 170.939 168.671 170.909 168.661C170.878 168.649 170.845 168.644 170.812 168.649C170.779 168.653 170.747 168.665 170.72 168.683C170.697 168.705 170.678 168.73 170.665 168.759L169.308 171.455C169.291 171.485 169.284 171.519 169.29 171.553C169.292 171.588 169.304 171.622 169.325 171.651L173.784 177.348C175.752 179.863 179.797 180.117 182.311 177.705C184.314 175.785 185.147 172.742 183.075 170.07C181.004 167.399 177.69 167.285 175.508 168.994L174.193 170.025C174.171 170.038 174.152 170.055 174.137 170.076C174.122 170.096 174.111 170.12 174.106 170.145C174.098 170.196 174.11 170.248 174.14 170.29L175.595 172.144C175.608 172.167 175.626 172.186 175.647 172.201C175.669 172.217 175.693 172.228 175.718 172.233C175.77 172.239 175.821 172.225 175.863 172.194L176.722 171.52C177.008 171.293 177.336 171.125 177.687 171.025C178.396 170.83 179.153 170.922 179.794 171.281C180.146 171.488 180.448 171.769 180.679 172.105C180.91 172.442 181.064 172.824 181.131 173.227C181.197 173.629 181.175 174.041 181.065 174.434C180.954 174.827 180.759 175.19 180.493 175.499C180.227 175.808 179.896 176.055 179.524 176.222C179.152 176.389 178.748 176.473 178.34 176.466C177.932 176.46 177.53 176.364 177.164 176.185C176.797 176.006 176.474 175.749 176.218 175.432L170.985 168.716Z" fill="url(#paint23_linear_14058_3256)"/>
<path d="M139.58 218.114C139.431 219.93 140.006 221.732 141.18 223.126C142.354 224.52 144.032 225.392 145.847 225.554C146.333 225.594 146.822 225.584 147.307 225.523L146.43 225.019C146.254 225.019 146.085 225.019 145.895 224.995C144.498 224.873 143.181 224.287 142.154 223.332L142.023 223.207C142.006 223.192 141.99 223.176 141.975 223.159C141.923 223.111 141.875 223.056 141.826 223.004C141.226 222.359 140.767 221.596 140.48 220.763C140.192 219.93 140.082 219.047 140.157 218.169C140.232 217.291 140.49 216.439 140.914 215.667C141.338 214.895 141.919 214.22 142.62 213.686L142.682 212.962C141.808 213.529 141.075 214.288 140.537 215.18C140 216.073 139.672 217.076 139.58 218.114ZM144.346 212.147L145.019 212.541C146.427 212.215 147.904 212.383 149.203 213.015C150.503 213.647 151.546 214.706 152.159 216.015C152.772 217.324 152.918 218.803 152.572 220.206C152.226 221.61 151.409 222.852 150.257 223.725L150.195 224.453C151.589 223.544 152.606 222.161 153.058 220.559C153.509 218.957 153.364 217.246 152.65 215.743C151.936 214.24 150.7 213.047 149.173 212.386C147.646 211.725 145.931 211.64 144.346 212.147ZM147.037 224.991L147.817 225.437C148.532 225.29 149.218 225.029 149.85 224.664L149.909 223.973C149.049 224.542 148.063 224.892 147.037 224.991ZM143.014 212.751L142.955 213.441C143.456 213.109 144.003 212.85 144.577 212.672L143.945 212.302C143.624 212.429 143.313 212.579 143.014 212.751Z" fill="#CA2040"/>
<path d="M143.097 211.792L143.946 212.288L144.581 212.658L150.579 216.167L150.258 219.943L147.208 221.085L150.017 222.741L149.696 226.513L147.818 225.437L147.038 224.991L142.987 222.669L142.142 222.983L142.466 219.187L146.441 217.7L142.777 215.563L143.097 211.792Z" fill="#CA2040"/>
<path d="M134.175 271.676C134.025 273.492 134.6 275.294 135.774 276.688C136.949 278.082 138.626 278.954 140.442 279.116C140.928 279.156 141.417 279.146 141.901 279.085L141.025 278.581C140.849 278.581 140.68 278.581 140.49 278.557C139.092 278.435 137.776 277.849 136.749 276.894L136.618 276.769C136.601 276.754 136.585 276.738 136.57 276.721C136.518 276.673 136.469 276.618 136.421 276.566C135.821 275.921 135.362 275.158 135.075 274.325C134.787 273.492 134.677 272.609 134.752 271.731C134.827 270.853 135.085 270.001 135.509 269.229C135.933 268.457 136.514 267.782 137.215 267.248L137.277 266.524C136.403 267.091 135.67 267.85 135.132 268.742C134.595 269.635 134.267 270.638 134.175 271.676ZM138.94 265.709L139.613 266.103C141.021 265.777 142.499 265.945 143.798 266.577C145.098 267.209 146.141 268.268 146.754 269.577C147.367 270.886 147.513 272.365 147.167 273.768C146.82 275.172 146.003 276.414 144.852 277.287L144.79 278.015C146.184 277.106 147.201 275.723 147.653 274.121C148.104 272.519 147.959 270.808 147.245 269.305C146.53 267.802 145.295 266.609 143.768 265.948C142.241 265.287 140.525 265.202 138.94 265.709ZM141.632 278.554L142.412 278.999C143.127 278.852 143.813 278.591 144.445 278.226L144.503 277.535C143.644 278.104 142.658 278.454 141.632 278.554ZM137.608 266.313L137.55 267.003C138.051 266.671 138.597 266.412 139.172 266.234L138.54 265.864C138.219 265.991 137.907 266.141 137.608 266.313Z" fill="#CA2040"/>
<path d="M137.691 265.354L138.54 265.85L139.175 266.22L145.173 269.729L144.852 273.505L141.801 274.647L144.61 276.303L144.289 280.075L142.412 278.999L141.632 278.553L137.581 276.231L136.735 276.545L137.06 272.749L141.035 271.262L137.37 269.125L137.691 265.354Z" fill="#CA2040"/>
<path d="M364.026 218.265L360.758 214.379L362.356 214.095L363.768 215.777C363.871 215.899 363.939 216.045 363.967 216.202C363.995 216.359 363.981 216.521 363.927 216.67L364.442 216.576L365.548 213.546L367.142 213.266L365.412 218.037L364.026 218.265Z" fill="url(#paint24_linear_14058_3256)"/>
<path d="M363.216 218.938L359.948 215.053L359.395 216.568L361.485 219.052L361.303 219.544C361.202 219.422 361.07 219.329 360.921 219.275C360.772 219.22 360.611 219.206 360.455 219.234L358.289 219.612L357.736 221.127L362.735 220.241L363.216 218.938Z" fill="url(#paint25_linear_14058_3256)"/>
<path d="M362.92 221.294L357.922 222.18L358.963 223.422L362.156 222.854L362.492 223.255C362.336 223.283 362.189 223.351 362.067 223.454C361.946 223.556 361.853 223.689 361.8 223.839L361.042 225.902L362.087 227.145L363.818 222.373L362.92 221.294Z" fill="url(#paint26_linear_14058_3256)"/>
<path d="M364.81 222.729L363.079 227.5L364.677 227.216L365.783 224.187L366.298 224.096C366.242 224.245 366.228 224.407 366.255 224.564C366.282 224.721 366.351 224.868 366.453 224.99L367.869 226.671L369.464 226.387L366.196 222.475L364.81 222.729Z" fill="url(#paint27_linear_14058_3256)"/>
<path d="M366.998 221.809L370.266 225.694L370.819 224.18L368.732 221.699L368.91 221.207C369.012 221.329 369.145 221.423 369.294 221.477C369.444 221.532 369.606 221.546 369.762 221.517L371.925 221.139L372.477 219.624L367.479 220.51L366.998 221.809Z" fill="url(#paint28_linear_14058_3256)"/>
<path d="M367.298 219.446L372.292 218.56L371.251 217.318L368.059 217.886L367.722 217.484C367.878 217.456 368.025 217.387 368.146 217.285C368.268 217.183 368.36 217.05 368.415 216.901L369.172 214.837L368.127 213.595L366.396 218.367L367.298 219.446Z" fill="url(#paint29_linear_14058_3256)"/>
<path d="M200.392 358.312L197.124 354.427L198.722 354.143L200.134 355.824C200.237 355.946 200.306 356.093 200.334 356.25C200.361 356.407 200.348 356.568 200.294 356.718L200.809 356.623L201.914 353.594L203.509 353.313L201.778 358.085L200.392 358.312Z" fill="url(#paint30_linear_14058_3256)"/>
<path d="M199.581 358.986L196.313 355.101L195.76 356.616L197.85 359.1L197.669 359.592C197.567 359.47 197.435 359.377 197.286 359.322C197.137 359.268 196.977 359.254 196.82 359.282L194.654 359.66L194.102 361.175L199.1 360.289L199.581 358.986Z" fill="url(#paint31_linear_14058_3256)"/>
<path d="M199.286 361.342L194.287 362.228L195.328 363.47L198.521 362.902L198.858 363.303C198.701 363.331 198.554 363.399 198.433 363.502C198.311 363.604 198.219 363.737 198.165 363.886L197.407 365.95L198.453 367.192L200.183 362.421L199.286 361.342Z" fill="url(#paint32_linear_14058_3256)"/>
<path d="M201.175 362.777L199.444 367.548L201.042 367.264L202.148 364.235L202.663 364.144C202.608 364.294 202.593 364.455 202.62 364.612C202.647 364.769 202.716 364.916 202.818 365.038L204.235 366.719L205.829 366.435L202.561 362.523L201.175 362.777Z" fill="url(#paint33_linear_14058_3256)"/>
<path d="M203.363 361.856L206.631 365.742L207.184 364.227L205.098 361.747L205.276 361.254C205.378 361.377 205.51 361.47 205.66 361.524C205.809 361.579 205.971 361.593 206.128 361.565L208.29 361.186L208.843 359.671L203.844 360.558L203.363 361.856Z" fill="url(#paint34_linear_14058_3256)"/>
<path d="M203.663 359.493L208.658 358.607L207.616 357.365L204.424 357.933L204.087 357.532C204.244 357.503 204.39 357.435 204.511 357.332C204.633 357.23 204.726 357.098 204.78 356.948L205.537 354.885L204.492 353.643L202.762 358.414L203.663 359.493Z" fill="url(#paint35_linear_14058_3256)"/>
<path d="M351.742 321.949L348.474 318.064L350.072 317.779L351.484 319.461C351.587 319.583 351.655 319.73 351.683 319.886C351.711 320.043 351.697 320.205 351.643 320.354L352.158 320.26L353.264 317.23L354.858 316.95L353.128 321.722L351.742 321.949Z" fill="url(#paint36_linear_14058_3256)"/>
<path d="M350.931 322.623L347.663 318.737L347.11 320.252L349.2 322.736L349.018 323.228C348.917 323.106 348.785 323.013 348.636 322.959C348.487 322.904 348.326 322.89 348.17 322.918L346.004 323.297L345.451 324.811L350.45 323.925L350.931 322.623Z" fill="url(#paint37_linear_14058_3256)"/>
<path d="M350.635 324.978L345.637 325.864L346.678 327.106L349.87 326.538L350.207 326.94C350.051 326.967 349.904 327.035 349.782 327.138C349.661 327.24 349.568 327.373 349.514 327.523L348.757 329.587L349.802 330.829L351.533 326.057L350.635 324.978Z" fill="url(#paint38_linear_14058_3256)"/>
<path d="M352.525 326.413L350.795 331.185L352.393 330.901L353.499 327.871L354.014 327.78C353.958 327.93 353.943 328.091 353.971 328.248C353.998 328.405 354.066 328.552 354.169 328.674L355.585 330.355L357.179 330.071L353.911 326.16L352.525 326.413Z" fill="url(#paint39_linear_14058_3256)"/>
<path d="M354.714 325.493L357.982 329.378L358.535 327.864L356.448 325.383L356.626 324.891C356.728 325.013 356.861 325.107 357.01 325.161C357.16 325.216 357.321 325.23 357.478 325.201L359.64 324.823L360.193 323.308L355.195 324.194L354.714 325.493Z" fill="url(#paint40_linear_14058_3256)"/>
<path d="M355.013 323.13L360.007 322.244L358.966 321.002L355.774 321.57L355.437 321.168C355.593 321.14 355.739 321.072 355.861 320.969C355.983 320.867 356.075 320.734 356.13 320.585L356.887 318.521L355.842 317.279L354.111 322.051L355.013 323.13Z" fill="url(#paint41_linear_14058_3256)"/>
<path d="M375.416 277.116C375.44 276.989 375.439 276.858 375.413 276.732C375.387 276.605 375.336 276.485 375.264 276.378C375.191 276.272 375.098 276.18 374.99 276.109C374.882 276.038 374.761 275.99 374.634 275.965L374.249 275.892C374.12 275.867 373.988 275.867 373.86 275.893C373.731 275.919 373.61 275.971 373.502 276.044C373.393 276.118 373.301 276.213 373.23 276.323C373.159 276.433 373.111 276.556 373.088 276.685L373.012 277.074C372.987 277.201 372.988 277.331 373.014 277.458C373.041 277.584 373.091 277.704 373.164 277.811C373.237 277.918 373.33 278.009 373.438 278.08C373.546 278.151 373.666 278.2 373.793 278.224L374.179 278.297C374.307 278.323 374.44 278.322 374.568 278.296C374.696 278.27 374.818 278.219 374.926 278.145C375.034 278.071 375.126 277.977 375.197 277.867C375.268 277.757 375.317 277.634 375.34 277.505L375.416 277.116Z" fill="white"/>
<path d="M376.017 274.006L376.093 273.616C376.117 273.489 376.116 273.359 376.09 273.233C376.064 273.106 376.013 272.986 375.941 272.879C375.868 272.772 375.775 272.681 375.667 272.61C375.559 272.539 375.438 272.49 375.311 272.466L374.922 272.397C374.794 272.372 374.663 272.372 374.535 272.398C374.407 272.424 374.286 272.475 374.178 272.549C374.071 272.622 373.979 272.716 373.908 272.826C373.837 272.935 373.788 273.057 373.765 273.185L373.689 273.575C373.664 273.702 373.665 273.832 373.691 273.958C373.718 274.085 373.769 274.205 373.841 274.312C373.914 274.419 374.007 274.51 374.115 274.581C374.223 274.652 374.344 274.701 374.47 274.725L374.856 274.798C374.984 274.823 375.117 274.823 375.245 274.797C375.373 274.771 375.495 274.72 375.603 274.646C375.711 274.572 375.803 274.477 375.874 274.367C375.945 274.257 375.994 274.134 376.017 274.006Z" fill="white"/>
<path d="M379.228 272.983C379.329 272.476 379.329 271.954 379.226 271.447C379.123 270.94 378.92 270.458 378.63 270.03C378.339 269.602 377.966 269.236 377.532 268.954C377.099 268.672 376.613 268.479 376.104 268.386L371.25 267.486C370.215 267.302 369.149 267.531 368.282 268.124C367.414 268.717 366.814 269.628 366.611 270.659L365.673 275.516C365.576 276.024 365.58 276.545 365.685 277.051C365.789 277.557 365.993 278.038 366.283 278.465C366.574 278.892 366.945 279.258 367.377 279.541C367.809 279.825 368.293 280.02 368.8 280.117L373.648 281.01C374.682 281.197 375.748 280.968 376.615 280.374C377.482 279.781 378.08 278.869 378.279 277.838L379.228 272.983ZM373.953 279.46L369.106 278.567C368.801 278.511 368.51 278.395 368.25 278.226C367.99 278.056 367.766 277.837 367.591 277.58C367.417 277.323 367.295 277.035 367.233 276.73C367.171 276.426 367.17 276.113 367.23 275.808L368.175 270.951C368.295 270.332 368.654 269.785 369.174 269.428C369.694 269.072 370.334 268.935 370.955 269.047L375.802 269.94C376.107 269.996 376.398 270.112 376.658 270.281C376.918 270.451 377.142 270.67 377.317 270.927C377.491 271.183 377.613 271.472 377.675 271.776C377.737 272.081 377.738 272.394 377.678 272.698L376.733 277.556C376.613 278.175 376.254 278.722 375.734 279.079C375.214 279.435 374.574 279.572 373.953 279.46Z" fill="white"/>
<path d="M310.504 365.571C310.618 365.511 310.72 365.429 310.803 365.33C310.885 365.231 310.948 365.117 310.987 364.993C311.025 364.87 311.039 364.741 311.028 364.612C311.016 364.483 310.98 364.358 310.92 364.244L310.737 363.896C310.678 363.779 310.596 363.676 310.496 363.592C310.395 363.507 310.28 363.444 310.155 363.405C310.03 363.366 309.898 363.352 309.768 363.365C309.638 363.378 309.511 363.416 309.396 363.478L309.043 363.66C308.929 363.72 308.827 363.801 308.744 363.9C308.661 363.999 308.599 364.114 308.56 364.237C308.522 364.36 308.508 364.49 308.519 364.619C308.531 364.747 308.567 364.872 308.627 364.987L308.809 365.334C308.869 365.451 308.951 365.554 309.051 365.639C309.151 365.723 309.267 365.787 309.392 365.826C309.517 365.864 309.649 365.878 309.779 365.865C309.909 365.853 310.036 365.814 310.151 365.752L310.504 365.571Z" fill="white"/>
<path d="M313.314 364.111L313.667 363.93C313.781 363.87 313.883 363.788 313.966 363.689C314.049 363.59 314.111 363.476 314.15 363.352C314.189 363.229 314.203 363.1 314.191 362.971C314.18 362.842 314.143 362.717 314.083 362.603L313.896 362.254C313.836 362.139 313.754 362.036 313.654 361.952C313.555 361.868 313.439 361.805 313.315 361.766C313.191 361.727 313.06 361.713 312.93 361.726C312.8 361.738 312.674 361.776 312.559 361.837L312.207 362.019C312.092 362.079 311.991 362.16 311.908 362.259C311.825 362.358 311.762 362.473 311.724 362.596C311.685 362.719 311.671 362.849 311.682 362.978C311.694 363.106 311.731 363.231 311.79 363.346L311.973 363.693C312.032 363.81 312.115 363.913 312.215 363.998C312.315 364.082 312.431 364.146 312.556 364.185C312.681 364.223 312.812 364.237 312.942 364.224C313.073 364.212 313.199 364.173 313.314 364.111Z" fill="white"/>
<path d="M316.109 365.994C316.569 365.758 316.978 365.433 317.312 365.038C317.646 364.643 317.897 364.185 318.052 363.691C318.207 363.198 318.262 362.678 318.214 362.163C318.166 361.648 318.016 361.148 317.773 360.691L315.465 356.327C314.967 355.401 314.126 354.708 313.122 354.396C312.118 354.084 311.032 354.179 310.098 354.66L305.707 356.941C305.249 357.18 304.843 357.507 304.511 357.903C304.18 358.299 303.929 358.757 303.775 359.25C303.62 359.743 303.564 360.261 303.61 360.776C303.656 361.29 303.803 361.791 304.042 362.249L306.352 366.603C306.848 367.529 307.688 368.223 308.692 368.534C309.696 368.845 310.782 368.748 311.714 368.264L316.109 365.994ZM307.757 365.88L305.447 361.526C305.302 361.252 305.212 360.952 305.183 360.643C305.155 360.333 305.188 360.022 305.281 359.726C305.373 359.429 305.524 359.155 305.724 358.917C305.924 358.68 306.169 358.484 306.445 358.342L310.84 356.067C311.399 355.777 312.051 355.719 312.654 355.905C313.256 356.092 313.761 356.508 314.058 357.064L316.368 361.418C316.513 361.692 316.603 361.993 316.632 362.302C316.66 362.611 316.627 362.923 316.534 363.219C316.441 363.515 316.291 363.79 316.091 364.027C315.891 364.265 315.646 364.46 315.37 364.602L310.975 366.877C310.415 367.168 309.764 367.226 309.161 367.039C308.559 366.853 308.054 366.436 307.757 365.88Z" fill="white"/>
<path d="M250.097 371.669L249.628 381.28L253.054 380.906L253.524 371.295L250.097 371.669Z" fill="white"/>
<path d="M258.334 371.322L259.958 372.194L258.545 378.716L257.629 370.847L254.32 371.207L255.421 380.648L261.227 380.011L264.32 367.92L258.334 371.322Z" fill="white"/>
<path d="M160.271 330.871L168.829 326.472L166.792 323.692L158.234 328.091L160.271 330.871Z" fill="white"/>
<path d="M155.851 323.911L155.795 322.069L162.149 320.031L155.793 324.759L157.759 327.445L165.384 321.771L161.93 317.061L149.912 320.428L155.851 323.911Z" fill="white"/>
</g>
<defs>
<filter id="filter0_di_14058_3256" x="234.151" y="124.178" width="47.8332" height="136.796" filterUnits="userSpaceOnUse" color-interpolation-filters="sRGB">
<feFlood flood-opacity="0" result="BackgroundImageFix"/>
<feColorMatrix in="SourceAlpha" type="matrix" values="0 0 0 0 0 0 0 0 0 0 0 0 0 0 0 0 0 0 127 0" result="hardAlpha"/>
<feOffset/>
<feGaussianBlur stdDeviation="1.53716"/>
<feComposite in2="hardAlpha" operator="out"/>
<feColorMatrix type="matrix" values="0 0 0 0 0 0 0 0 0 0 0 0 0 0 0 0 0 0 0.25 0"/>
<feBlend mode="normal" in2="BackgroundImageFix" result="effect1_dropShadow_14058_3256"/>
<feBlend mode="normal" in="SourceGraphic" in2="effect1_dropShadow_14058_3256" result="shape"/>
<feColorMatrix in="SourceAlpha" type="matrix" values="0 0 0 0 0 0 0 0 0 0 0 0 0 0 0 0 0 0 127 0" result="hardAlpha"/>
<feOffset/>
<feGaussianBlur stdDeviation="3.65076"/>
<feComposite in2="hardAlpha" operator="arithmetic" k2="-1" k3="1"/>
<feColorMatrix type="matrix" values="0 0 0 0 0 0 0 0 0 0 0 0 0 0 0 0 0 0 0.5 0"/>
<feBlend mode="normal" in2="shape" result="effect2_innerShadow_14058_3256"/>
</filter>
<filter id="filter1_b_14058_3256" x="110.073" y="112.038" width="291.889" height="291.889" filterUnits="userSpaceOnUse" color-interpolation-filters="sRGB">
<feFlood flood-opacity="0" result="BackgroundImageFix"/>
<feGaussianBlur in="BackgroundImageFix" stdDeviation="7.37094"/>
<feComposite in2="SourceAlpha" operator="in" result="effect1_backgroundBlur_14058_3256"/>
<feBlend mode="normal" in="SourceGraphic" in2="effect1_backgroundBlur_14058_3256" result="shape"/>
</filter>
<filter id="filter2_f_14058_3256" x="235.472" y="236.138" width="47.7433" height="39.3249" filterUnits="userSpaceOnUse" color-interpolation-filters="sRGB">
<feFlood flood-opacity="0" result="BackgroundImageFix"/>
<feBlend mode="normal" in="SourceGraphic" in2="BackgroundImageFix" result="shape"/>
<feGaussianBlur stdDeviation="3.79863" result="effect1_foregroundBlur_14058_3256"/>
</filter>
<filter id="filter3_f_14058_3256" x="226.435" y="90.9798" width="59.9115" height="59.0629" filterUnits="userSpaceOnUse" color-interpolation-filters="sRGB">
<feFlood flood-opacity="0" result="BackgroundImageFix"/>
<feBlend mode="normal" in="SourceGraphic" in2="BackgroundImageFix" result="shape"/>
<feGaussianBlur stdDeviation="7.37094" result="effect1_foregroundBlur_14058_3256"/>
</filter>
<filter id="filter4_d_14058_3256" x="240.643" y="107.616" width="32.715" height="34.1038" filterUnits="userSpaceOnUse" color-interpolation-filters="sRGB">
<feFlood flood-opacity="0" result="BackgroundImageFix"/>
<feColorMatrix in="SourceAlpha" type="matrix" values="0 0 0 0 0 0 0 0 0 0 0 0 0 0 0 0 0 0 127 0" result="hardAlpha"/>
<feOffset dy="4.61149"/>
<feGaussianBlur stdDeviation="1.15287"/>
<feComposite in2="hardAlpha" operator="out"/>
<feColorMatrix type="matrix" values="0 0 0 0 0 0 0 0 0 0 0 0 0 0 0 0 0 0 0.12 0"/>
<feBlend mode="normal" in2="BackgroundImageFix" result="effect1_dropShadow_14058_3256"/>
<feBlend mode="normal" in="SourceGraphic" in2="effect1_dropShadow_14058_3256" result="shape"/>
</filter>
<filter id="filter5_f_14058_3256" x="259.883" y="340.304" width="105.981" height="95.1754" filterUnits="userSpaceOnUse" color-interpolation-filters="sRGB">
<feFlood flood-opacity="0" result="BackgroundImageFix"/>
<feBlend mode="normal" in="SourceGraphic" in2="BackgroundImageFix" result="shape"/>
<feGaussianBlur stdDeviation="21.7065" result="effect1_foregroundBlur_14058_3256"/>
</filter>
<filter id="filter6_f_14058_3256" x="289.004" y="372.864" width="35.4584" height="32.5116" filterUnits="userSpaceOnUse" color-interpolation-filters="sRGB">
<feFlood flood-opacity="0" result="BackgroundImageFix"/>
<feBlend mode="normal" in="SourceGraphic" in2="BackgroundImageFix" result="shape"/>
<feGaussianBlur stdDeviation="5.42661" result="effect1_foregroundBlur_14058_3256"/>
</filter>
<filter id="filter7_d_14058_3256" x="300.633" y="385.682" width="9.74363" height="9.74412" filterUnits="userSpaceOnUse" color-interpolation-filters="sRGB">
<feFlood flood-opacity="0" result="BackgroundImageFix"/>
<feColorMatrix in="SourceAlpha" type="matrix" values="0 0 0 0 0 0 0 0 0 0 0 0 0 0 0 0 0 0 127 0" result="hardAlpha"/>
<feOffset dy="2.17065"/>
<feGaussianBlur stdDeviation="1.08532"/>
<feComposite in2="hardAlpha" operator="out"/>
<feColorMatrix type="matrix" values="0 0 0 0 0 0 0 0 0 0 0 0 0 0 0 0 0 0 0.3 0"/>
<feBlend mode="normal" in2="BackgroundImageFix" result="effect1_dropShadow_14058_3256"/>
<feBlend mode="normal" in="SourceGraphic" in2="effect1_dropShadow_14058_3256" result="shape"/>
</filter>
<filter id="filter8_f_14058_3256" x="313.419" y="303.959" width="105.981" height="95.1754" filterUnits="userSpaceOnUse" color-interpolation-filters="sRGB">
<feFlood flood-opacity="0" result="BackgroundImageFix"/>
<feBlend mode="normal" in="SourceGraphic" in2="BackgroundImageFix" result="shape"/>
<feGaussianBlur stdDeviation="21.7065" result="effect1_foregroundBlur_14058_3256"/>
</filter>
<filter id="filter9_f_14058_3256" x="342.54" y="336.518" width="35.4584" height="32.5116" filterUnits="userSpaceOnUse" color-interpolation-filters="sRGB">
<feFlood flood-opacity="0" result="BackgroundImageFix"/>
<feBlend mode="normal" in="SourceGraphic" in2="BackgroundImageFix" result="shape"/>
<feGaussianBlur stdDeviation="5.42661" result="effect1_foregroundBlur_14058_3256"/>
</filter>
<filter id="filter10_d_14058_3256" x="354.17" y="349.336" width="9.74363" height="9.74412" filterUnits="userSpaceOnUse" color-interpolation-filters="sRGB">
<feFlood flood-opacity="0" result="BackgroundImageFix"/>
<feColorMatrix in="SourceAlpha" type="matrix" values="0 0 0 0 0 0 0 0 0 0 0 0 0 0 0 0 0 0 127 0" result="hardAlpha"/>
<feOffset dy="2.17065"/>
<feGaussianBlur stdDeviation="1.08532"/>
<feComposite in2="hardAlpha" operator="out"/>
<feColorMatrix type="matrix" values="0 0 0 0 0 0 0 0 0 0 0 0 0 0 0 0 0 0 0.3 0"/>
<feBlend mode="normal" in2="BackgroundImageFix" result="effect1_dropShadow_14058_3256"/>
<feBlend mode="normal" in="SourceGraphic" in2="effect1_dropShadow_14058_3256" result="shape"/>
</filter>
<filter id="filter11_f_14058_3256" x="346.818" y="244.529" width="105.981" height="95.1754" filterUnits="userSpaceOnUse" color-interpolation-filters="sRGB">
<feFlood flood-opacity="0" result="BackgroundImageFix"/>
<feBlend mode="normal" in="SourceGraphic" in2="BackgroundImageFix" result="shape"/>
<feGaussianBlur stdDeviation="21.7065" result="effect1_foregroundBlur_14058_3256"/>
</filter>
<filter id="filter12_f_14058_3256" x="375.939" y="277.089" width="35.4584" height="32.5116" filterUnits="userSpaceOnUse" color-interpolation-filters="sRGB">
<feFlood flood-opacity="0" result="BackgroundImageFix"/>
<feBlend mode="normal" in="SourceGraphic" in2="BackgroundImageFix" result="shape"/>
<feGaussianBlur stdDeviation="5.42661" result="effect1_foregroundBlur_14058_3256"/>
</filter>
<filter id="filter13_d_14058_3256" x="387.569" y="289.907" width="9.74363" height="9.74412" filterUnits="userSpaceOnUse" color-interpolation-filters="sRGB">
<feFlood flood-opacity="0" result="BackgroundImageFix"/>
<feColorMatrix in="SourceAlpha" type="matrix" values="0 0 0 0 0 0 0 0 0 0 0 0 0 0 0 0 0 0 127 0" result="hardAlpha"/>
<feOffset dy="2.17065"/>
<feGaussianBlur stdDeviation="1.08532"/>
<feComposite in2="hardAlpha" operator="out"/>
<feColorMatrix type="matrix" values="0 0 0 0 0 0 0 0 0 0 0 0 0 0 0 0 0 0 0.3 0"/>
<feBlend mode="normal" in2="BackgroundImageFix" result="effect1_dropShadow_14058_3256"/>
<feBlend mode="normal" in="SourceGraphic" in2="effect1_dropShadow_14058_3256" result="shape"/>
</filter>
<filter id="filter14_f_14058_3256" x="347.8" y="179.206" width="105.981" height="95.1754" filterUnits="userSpaceOnUse" color-interpolation-filters="sRGB">
<feFlood flood-opacity="0" result="BackgroundImageFix"/>
<feBlend mode="normal" in="SourceGraphic" in2="BackgroundImageFix" result="shape"/>
<feGaussianBlur stdDeviation="21.7065" result="effect1_foregroundBlur_14058_3256"/>
</filter>
<filter id="filter15_f_14058_3256" x="376.921" y="211.765" width="35.4584" height="32.5116" filterUnits="userSpaceOnUse" color-interpolation-filters="sRGB">
<feFlood flood-opacity="0" result="BackgroundImageFix"/>
<feBlend mode="normal" in="SourceGraphic" in2="BackgroundImageFix" result="shape"/>
<feGaussianBlur stdDeviation="5.42661" result="effect1_foregroundBlur_14058_3256"/>
</filter>
<filter id="filter16_d_14058_3256" x="388.55" y="224.583" width="9.74363" height="9.74412" filterUnits="userSpaceOnUse" color-interpolation-filters="sRGB">
<feFlood flood-opacity="0" result="BackgroundImageFix"/>
<feColorMatrix in="SourceAlpha" type="matrix" values="0 0 0 0 0 0 0 0 0 0 0 0 0 0 0 0 0 0 127 0" result="hardAlpha"/>
<feOffset dy="2.17065"/>
<feGaussianBlur stdDeviation="1.08532"/>
<feComposite in2="hardAlpha" operator="out"/>
<feColorMatrix type="matrix" values="0 0 0 0 0 0 0 0 0 0 0 0 0 0 0 0 0 0 0.3 0"/>
<feBlend mode="normal" in2="BackgroundImageFix" result="effect1_dropShadow_14058_3256"/>
<feBlend mode="normal" in="SourceGraphic" in2="effect1_dropShadow_14058_3256" result="shape"/>
</filter>
<filter id="filter17_f_14058_3256" x="319.314" y="120.268" width="105.981" height="95.1754" filterUnits="userSpaceOnUse" color-interpolation-filters="sRGB">
<feFlood flood-opacity="0" result="BackgroundImageFix"/>
<feBlend mode="normal" in="SourceGraphic" in2="BackgroundImageFix" result="shape"/>
<feGaussianBlur stdDeviation="21.7065" result="effect1_foregroundBlur_14058_3256"/>
</filter>
<filter id="filter18_f_14058_3256" x="348.435" y="152.827" width="35.4584" height="32.5116" filterUnits="userSpaceOnUse" color-interpolation-filters="sRGB">
<feFlood flood-opacity="0" result="BackgroundImageFix"/>
<feBlend mode="normal" in="SourceGraphic" in2="BackgroundImageFix" result="shape"/>
<feGaussianBlur stdDeviation="5.42661" result="effect1_foregroundBlur_14058_3256"/>
</filter>
<filter id="filter19_d_14058_3256" x="360.065" y="165.645" width="9.74363" height="9.74412" filterUnits="userSpaceOnUse" color-interpolation-filters="sRGB">
<feFlood flood-opacity="0" result="BackgroundImageFix"/>
<feColorMatrix in="SourceAlpha" type="matrix" values="0 0 0 0 0 0 0 0 0 0 0 0 0 0 0 0 0 0 127 0" result="hardAlpha"/>
<feOffset dy="2.17065"/>
<feGaussianBlur stdDeviation="1.08532"/>
<feComposite in2="hardAlpha" operator="out"/>
<feColorMatrix type="matrix" values="0 0 0 0 0 0 0 0 0 0 0 0 0 0 0 0 0 0 0.3 0"/>
<feBlend mode="normal" in2="BackgroundImageFix" result="effect1_dropShadow_14058_3256"/>
<feBlend mode="normal" in="SourceGraphic" in2="effect1_dropShadow_14058_3256" result="shape"/>
</filter>
<filter id="filter20_f_14058_3256" x="265.286" y="79.9933" width="105.981" height="95.1754" filterUnits="userSpaceOnUse" color-interpolation-filters="sRGB">
<feFlood flood-opacity="0" result="BackgroundImageFix"/>
<feBlend mode="normal" in="SourceGraphic" in2="BackgroundImageFix" result="shape"/>
<feGaussianBlur stdDeviation="21.7065" result="effect1_foregroundBlur_14058_3256"/>
</filter>
<filter id="filter21_f_14058_3256" x="294.408" y="112.553" width="35.4584" height="32.5116" filterUnits="userSpaceOnUse" color-interpolation-filters="sRGB">
<feFlood flood-opacity="0" result="BackgroundImageFix"/>
<feBlend mode="normal" in="SourceGraphic" in2="BackgroundImageFix" result="shape"/>
<feGaussianBlur stdDeviation="5.42661" result="effect1_foregroundBlur_14058_3256"/>
</filter>
<filter id="filter22_d_14058_3256" x="306.037" y="125.371" width="9.74363" height="9.74412" filterUnits="userSpaceOnUse" color-interpolation-filters="sRGB">
<feFlood flood-opacity="0" result="BackgroundImageFix"/>
<feColorMatrix in="SourceAlpha" type="matrix" values="0 0 0 0 0 0 0 0 0 0 0 0 0 0 0 0 0 0 127 0" result="hardAlpha"/>
<feOffset dy="2.17065"/>
<feGaussianBlur stdDeviation="1.08532"/>
<feComposite in2="hardAlpha" operator="out"/>
<feColorMatrix type="matrix" values="0 0 0 0 0 0 0 0 0 0 0 0 0 0 0 0 0 0 0.3 0"/>
<feBlend mode="normal" in2="BackgroundImageFix" result="effect1_dropShadow_14058_3256"/>
<feBlend mode="normal" in="SourceGraphic" in2="effect1_dropShadow_14058_3256" result="shape"/>
</filter>
<filter id="filter23_f_14058_3256" x="178.842" y="347.671" width="105.981" height="94.6842" filterUnits="userSpaceOnUse" color-interpolation-filters="sRGB">
<feFlood flood-opacity="0" result="BackgroundImageFix"/>
<feBlend mode="normal" in="SourceGraphic" in2="BackgroundImageFix" result="shape"/>
<feGaussianBlur stdDeviation="21.7065" result="effect1_foregroundBlur_14058_3256"/>
</filter>
<filter id="filter24_f_14058_3256" x="220.243" y="380.231" width="35.4584" height="32.5116" filterUnits="userSpaceOnUse" color-interpolation-filters="sRGB">
<feFlood flood-opacity="0" result="BackgroundImageFix"/>
<feBlend mode="normal" in="SourceGraphic" in2="BackgroundImageFix" result="shape"/>
<feGaussianBlur stdDeviation="5.42661" result="effect1_foregroundBlur_14058_3256"/>
</filter>
<filter id="filter25_d_14058_3256" x="234.328" y="393.048" width="9.74363" height="9.74412" filterUnits="userSpaceOnUse" color-interpolation-filters="sRGB">
<feFlood flood-opacity="0" result="BackgroundImageFix"/>
<feColorMatrix in="SourceAlpha" type="matrix" values="0 0 0 0 0 0 0 0 0 0 0 0 0 0 0 0 0 0 127 0" result="hardAlpha"/>
<feOffset dy="2.17065"/>
<feGaussianBlur stdDeviation="1.08532"/>
<feComposite in2="hardAlpha" operator="out"/>
<feColorMatrix type="matrix" values="0 0 0 0 0 0 0 0 0 0 0 0 0 0 0 0 0 0 0.3 0"/>
<feBlend mode="normal" in2="BackgroundImageFix" result="effect1_dropShadow_14058_3256"/>
<feBlend mode="normal" in="SourceGraphic" in2="effect1_dropShadow_14058_3256" result="shape"/>
</filter>
<filter id="filter26_f_14058_3256" x="117.448" y="324.096" width="105.981" height="95.1754" filterUnits="userSpaceOnUse" color-interpolation-filters="sRGB">
<feFlood flood-opacity="0" result="BackgroundImageFix"/>
<feBlend mode="normal" in="SourceGraphic" in2="BackgroundImageFix" result="shape"/>
<feGaussianBlur stdDeviation="21.7065" result="effect1_foregroundBlur_14058_3256"/>
</filter>
<filter id="filter27_f_14058_3256" x="158.85" y="356.656" width="35.4584" height="32.5116" filterUnits="userSpaceOnUse" color-interpolation-filters="sRGB">
<feFlood flood-opacity="0" result="BackgroundImageFix"/>
<feBlend mode="normal" in="SourceGraphic" in2="BackgroundImageFix" result="shape"/>
<feGaussianBlur stdDeviation="5.42661" result="effect1_foregroundBlur_14058_3256"/>
</filter>
<filter id="filter28_d_14058_3256" x="172.935" y="369.473" width="9.74363" height="9.74412" filterUnits="userSpaceOnUse" color-interpolation-filters="sRGB">
<feFlood flood-opacity="0" result="BackgroundImageFix"/>
<feColorMatrix in="SourceAlpha" type="matrix" values="0 0 0 0 0 0 0 0 0 0 0 0 0 0 0 0 0 0 127 0" result="hardAlpha"/>
<feOffset dy="2.17065"/>
<feGaussianBlur stdDeviation="1.08532"/>
<feComposite in2="hardAlpha" operator="out"/>
<feColorMatrix type="matrix" values="0 0 0 0 0 0 0 0 0 0 0 0 0 0 0 0 0 0 0.3 0"/>
<feBlend mode="normal" in2="BackgroundImageFix" result="effect1_dropShadow_14058_3256"/>
<feBlend mode="normal" in="SourceGraphic" in2="effect1_dropShadow_14058_3256" result="shape"/>
</filter>
<filter id="filter29_f_14058_3256" x="73.7355" y="276.454" width="105.981" height="95.1754" filterUnits="userSpaceOnUse" color-interpolation-filters="sRGB">
<feFlood flood-opacity="0" result="BackgroundImageFix"/>
<feBlend mode="normal" in="SourceGraphic" in2="BackgroundImageFix" result="shape"/>
<feGaussianBlur stdDeviation="21.7065" result="effect1_foregroundBlur_14058_3256"/>
</filter>
<filter id="filter30_f_14058_3256" x="115.137" y="309.013" width="35.4584" height="32.5116" filterUnits="userSpaceOnUse" color-interpolation-filters="sRGB">
<feFlood flood-opacity="0" result="BackgroundImageFix"/>
<feBlend mode="normal" in="SourceGraphic" in2="BackgroundImageFix" result="shape"/>
<feGaussianBlur stdDeviation="5.42661" result="effect1_foregroundBlur_14058_3256"/>
</filter>
<filter id="filter31_d_14058_3256" x="129.222" y="321.832" width="9.74363" height="9.74412" filterUnits="userSpaceOnUse" color-interpolation-filters="sRGB">
<feFlood flood-opacity="0" result="BackgroundImageFix"/>
<feColorMatrix in="SourceAlpha" type="matrix" values="0 0 0 0 0 0 0 0 0 0 0 0 0 0 0 0 0 0 127 0" result="hardAlpha"/>
<feOffset dy="2.17065"/>
<feGaussianBlur stdDeviation="1.08532"/>
<feComposite in2="hardAlpha" operator="out"/>
<feColorMatrix type="matrix" values="0 0 0 0 0 0 0 0 0 0 0 0 0 0 0 0 0 0 0.3 0"/>
<feBlend mode="normal" in2="BackgroundImageFix" result="effect1_dropShadow_14058_3256"/>
<feBlend mode="normal" in="SourceGraphic" in2="effect1_dropShadow_14058_3256" result="shape"/>
</filter>
<filter id="filter32_f_14058_3256" x="56.5451" y="211.131" width="105.981" height="95.1754" filterUnits="userSpaceOnUse" color-interpolation-filters="sRGB">
<feFlood flood-opacity="0" result="BackgroundImageFix"/>
<feBlend mode="normal" in="SourceGraphic" in2="BackgroundImageFix" result="shape"/>
<feGaussianBlur stdDeviation="21.7065" result="effect1_foregroundBlur_14058_3256"/>
</filter>
<filter id="filter33_f_14058_3256" x="97.9466" y="243.691" width="35.4584" height="32.5116" filterUnits="userSpaceOnUse" color-interpolation-filters="sRGB">
<feFlood flood-opacity="0" result="BackgroundImageFix"/>
<feBlend mode="normal" in="SourceGraphic" in2="BackgroundImageFix" result="shape"/>
<feGaussianBlur stdDeviation="5.42661" result="effect1_foregroundBlur_14058_3256"/>
</filter>
<filter id="filter34_d_14058_3256" x="112.032" y="256.508" width="9.74363" height="9.74412" filterUnits="userSpaceOnUse" color-interpolation-filters="sRGB">
<feFlood flood-opacity="0" result="BackgroundImageFix"/>
<feColorMatrix in="SourceAlpha" type="matrix" values="0 0 0 0 0 0 0 0 0 0 0 0 0 0 0 0 0 0 127 0" result="hardAlpha"/>
<feOffset dy="2.17065"/>
<feGaussianBlur stdDeviation="1.08532"/>
<feComposite in2="hardAlpha" operator="out"/>
<feColorMatrix type="matrix" values="0 0 0 0 0 0 0 0 0 0 0 0 0 0 0 0 0 0 0.3 0"/>
<feBlend mode="normal" in2="BackgroundImageFix" result="effect1_dropShadow_14058_3256"/>
<feBlend mode="normal" in="SourceGraphic" in2="effect1_dropShadow_14058_3256" result="shape"/>
</filter>
<filter id="filter35_f_14058_3256" x="71.7707" y="146.299" width="105.981" height="95.1754" filterUnits="userSpaceOnUse" color-interpolation-filters="sRGB">
<feFlood flood-opacity="0" result="BackgroundImageFix"/>
<feBlend mode="normal" in="SourceGraphic" in2="BackgroundImageFix" result="shape"/>
<feGaussianBlur stdDeviation="21.7065" result="effect1_foregroundBlur_14058_3256"/>
</filter>
<filter id="filter36_f_14058_3256" x="113.172" y="178.859" width="35.4584" height="32.5116" filterUnits="userSpaceOnUse" color-interpolation-filters="sRGB">
<feFlood flood-opacity="0" result="BackgroundImageFix"/>
<feBlend mode="normal" in="SourceGraphic" in2="BackgroundImageFix" result="shape"/>
<feGaussianBlur stdDeviation="5.42661" result="effect1_foregroundBlur_14058_3256"/>
</filter>
<filter id="filter37_d_14058_3256" x="127.257" y="191.677" width="9.74363" height="9.74412" filterUnits="userSpaceOnUse" color-interpolation-filters="sRGB">
<feFlood flood-opacity="0" result="BackgroundImageFix"/>
<feColorMatrix in="SourceAlpha" type="matrix" values="0 0 0 0 0 0 0 0 0 0 0 0 0 0 0 0 0 0 127 0" result="hardAlpha"/>
<feOffset dy="2.17065"/>
<feGaussianBlur stdDeviation="1.08532"/>
<feComposite in2="hardAlpha" operator="out"/>
<feColorMatrix type="matrix" values="0 0 0 0 0 0 0 0 0 0 0 0 0 0 0 0 0 0 0.3 0"/>
<feBlend mode="normal" in2="BackgroundImageFix" result="effect1_dropShadow_14058_3256"/>
<feBlend mode="normal" in="SourceGraphic" in2="effect1_dropShadow_14058_3256" result="shape"/>
</filter>
<filter id="filter38_f_14058_3256" x="173.931" y="70.6613" width="105.981" height="95.1754" filterUnits="userSpaceOnUse" color-interpolation-filters="sRGB">
<feFlood flood-opacity="0" result="BackgroundImageFix"/>
<feBlend mode="normal" in="SourceGraphic" in2="BackgroundImageFix" result="shape"/>
<feGaussianBlur stdDeviation="21.7065" result="effect1_foregroundBlur_14058_3256"/>
</filter>
<filter id="filter39_f_14058_3256" x="215.332" y="103.221" width="35.4584" height="32.5116" filterUnits="userSpaceOnUse" color-interpolation-filters="sRGB">
<feFlood flood-opacity="0" result="BackgroundImageFix"/>
<feBlend mode="normal" in="SourceGraphic" in2="BackgroundImageFix" result="shape"/>
<feGaussianBlur stdDeviation="5.42661" result="effect1_foregroundBlur_14058_3256"/>
</filter>
<filter id="filter40_d_14058_3256" x="229.417" y="116.039" width="9.74363" height="9.74412" filterUnits="userSpaceOnUse" color-interpolation-filters="sRGB">
<feFlood flood-opacity="0" result="BackgroundImageFix"/>
<feColorMatrix in="SourceAlpha" type="matrix" values="0 0 0 0 0 0 0 0 0 0 0 0 0 0 0 0 0 0 127 0" result="hardAlpha"/>
<feOffset dy="2.17065"/>
<feGaussianBlur stdDeviation="1.08532"/>
<feComposite in2="hardAlpha" operator="out"/>
<feColorMatrix type="matrix" values="0 0 0 0 0 0 0 0 0 0 0 0 0 0 0 0 0 0 0.3 0"/>
<feBlend mode="normal" in2="BackgroundImageFix" result="effect1_dropShadow_14058_3256"/>
<feBlend mode="normal" in="SourceGraphic" in2="effect1_dropShadow_14058_3256" result="shape"/>
</filter>
<filter id="filter41_f_14058_3256" x="112.538" y="96.2013" width="105.981" height="95.1754" filterUnits="userSpaceOnUse" color-interpolation-filters="sRGB">
<feFlood flood-opacity="0" result="BackgroundImageFix"/>
<feBlend mode="normal" in="SourceGraphic" in2="BackgroundImageFix" result="shape"/>
<feGaussianBlur stdDeviation="21.7065" result="effect1_foregroundBlur_14058_3256"/>
</filter>
<filter id="filter42_f_14058_3256" x="153.939" y="128.761" width="35.4584" height="32.5116" filterUnits="userSpaceOnUse" color-interpolation-filters="sRGB">
<feFlood flood-opacity="0" result="BackgroundImageFix"/>
<feBlend mode="normal" in="SourceGraphic" in2="BackgroundImageFix" result="shape"/>
<feGaussianBlur stdDeviation="5.42661" result="effect1_foregroundBlur_14058_3256"/>
</filter>
<filter id="filter43_d_14058_3256" x="168.024" y="141.579" width="9.74363" height="9.74412" filterUnits="userSpaceOnUse" color-interpolation-filters="sRGB">
<feFlood flood-opacity="0" result="BackgroundImageFix"/>
<feColorMatrix in="SourceAlpha" type="matrix" values="0 0 0 0 0 0 0 0 0 0 0 0 0 0 0 0 0 0 127 0" result="hardAlpha"/>
<feOffset dy="2.17065"/>
<feGaussianBlur stdDeviation="1.08532"/>
<feComposite in2="hardAlpha" operator="out"/>
<feColorMatrix type="matrix" values="0 0 0 0 0 0 0 0 0 0 0 0 0 0 0 0 0 0 0.3 0"/>
<feBlend mode="normal" in2="BackgroundImageFix" result="effect1_dropShadow_14058_3256"/>
<feBlend mode="normal" in="SourceGraphic" in2="effect1_dropShadow_14058_3256" result="shape"/>
</filter>
<linearGradient id="paint0_linear_14058_3256" x1="221" y1="107.689" x2="256.747" y2="406.818" gradientUnits="userSpaceOnUse">
<stop stop-color="white"/>
<stop offset="0.204" stop-color="#03D9AF" stop-opacity="0"/>
<stop offset="0.404" stop-color="#03D9AF"/>
<stop offset="0.624" stop-color="white"/>
<stop offset="0.864" stop-color="#03D9AF" stop-opacity="0"/>
<stop offset="0.984" stop-color="#03D9AF" stop-opacity="0"/>
</linearGradient>
<linearGradient id="paint1_linear_14058_3256" x1="257.128" y1="122.915" x2="257.128" y2="392.067" gradientUnits="userSpaceOnUse">
<stop stop-color="white"/>
<stop offset="0.458025" stop-color="#02745D"/>
<stop offset="0.774" stop-color="white"/>
</linearGradient>
<linearGradient id="paint2_linear_14058_3256" x1="345.199" y1="112.756" x2="139.999" y2="373.655" gradientUnits="userSpaceOnUse">
<stop stop-color="#03D9AF"/>
<stop offset="0.0914231" stop-color="white"/>
<stop offset="0.204" stop-color="#03D9AF" stop-opacity="0"/>
<stop offset="0.624" stop-color="white" stop-opacity="0"/>
<stop offset="0.930615" stop-color="white" stop-opacity="0.07"/>
</linearGradient>
<linearGradient id="paint3_linear_14058_3256" x1="416.33" y1="354.67" x2="128.602" y2="128.37" gradientUnits="userSpaceOnUse">
<stop stop-color="#03D9AF"/>
<stop offset="0.0914231" stop-color="white"/>
<stop offset="0.204" stop-color="#03D9AF" stop-opacity="0"/>
<stop offset="0.624" stop-color="white" stop-opacity="0"/>
<stop offset="0.930615" stop-color="white" stop-opacity="0.07"/>
</linearGradient>
<linearGradient id="paint4_linear_14058_3256" x1="298.403" y1="317.072" x2="311.131" y2="364.77" gradientUnits="userSpaceOnUse">
<stop offset="0.0628461" stop-color="white" stop-opacity="0.29"/>
<stop offset="0.853478" stop-color="#03D9AF"/>
</linearGradient>
<linearGradient id="paint5_linear_14058_3256" x1="258.791" y1="269.126" x2="281.591" y2="382.517" gradientUnits="userSpaceOnUse">
<stop offset="0.0628461" stop-color="white" stop-opacity="0.29"/>
<stop offset="0.853478" stop-color="#03D9AF"/>
</linearGradient>
<linearGradient id="paint6_linear_14058_3256" x1="252.945" y1="268.864" x2="221.071" y2="380.046" gradientUnits="userSpaceOnUse">
<stop offset="0.0628461" stop-color="white" stop-opacity="0.29"/>
<stop offset="0.853478" stop-color="#03D9AF"/>
</linearGradient>
<linearGradient id="paint7_linear_14058_3256" x1="247.695" y1="266.335" x2="168.339" y2="350.478" gradientUnits="userSpaceOnUse">
<stop offset="0.0628461" stop-color="white" stop-opacity="0.29"/>
<stop offset="0.853478" stop-color="#03D9AF"/>
</linearGradient>
<linearGradient id="paint8_linear_14058_3256" x1="244.686" y1="261.473" x2="135.505" y2="299.64" gradientUnits="userSpaceOnUse">
<stop offset="0.0628461" stop-color="white" stop-opacity="0.29"/>
<stop offset="0.853478" stop-color="#03D9AF"/>
</linearGradient>
<linearGradient id="paint9_linear_14058_3256" x1="243.974" y1="255.284" x2="129.456" y2="239.073" gradientUnits="userSpaceOnUse">
<stop offset="0.0628461" stop-color="white" stop-opacity="0.29"/>
<stop offset="0.853478" stop-color="#03D9AF"/>
</linearGradient>
<linearGradient id="paint10_linear_14058_3256" x1="246.122" y1="250.267" x2="151.87" y2="183.23" gradientUnits="userSpaceOnUse">
<stop offset="0.0628461" stop-color="white" stop-opacity="0.29"/>
<stop offset="0.853478" stop-color="#03D9AF"/>
</linearGradient>
<linearGradient id="paint11_linear_14058_3256" x1="250.582" y1="246.31" x2="197.621" y2="143.487" gradientUnits="userSpaceOnUse">
<stop offset="0.0628461" stop-color="white" stop-opacity="0.29"/>
<stop offset="0.853478" stop-color="#03D9AF"/>
</linearGradient>
<linearGradient id="paint12_linear_14058_3256" x1="263.114" y1="246.837" x2="324.041" y2="148.524" gradientUnits="userSpaceOnUse">
<stop offset="0.0628461" stop-color="white" stop-opacity="0.29"/>
<stop offset="0.853478" stop-color="#03D9AF"/>
</linearGradient>
<linearGradient id="paint13_linear_14058_3256" x1="266.949" y1="250.917" x2="366.207" y2="191.545" gradientUnits="userSpaceOnUse">
<stop offset="0.0628461" stop-color="white" stop-opacity="0.29"/>
<stop offset="0.853478" stop-color="#03D9AF"/>
</linearGradient>
<linearGradient id="paint14_linear_14058_3256" x1="268.564" y1="256.562" x2="384.007" y2="249.459" gradientUnits="userSpaceOnUse">
<stop offset="0.0628461" stop-color="white" stop-opacity="0.29"/>
<stop offset="0.853478" stop-color="#03D9AF"/>
</linearGradient>
<linearGradient id="paint15_linear_14058_3256" x1="267.65" y1="262.022" x2="373.471" y2="308.706" gradientUnits="userSpaceOnUse">
<stop offset="0.0628461" stop-color="white" stop-opacity="0.29"/>
<stop offset="0.853478" stop-color="#03D9AF"/>
</linearGradient>
<linearGradient id="paint16_linear_14058_3256" x1="256.973" y1="245.59" x2="256.973" y2="129.929" gradientUnits="userSpaceOnUse">
<stop offset="0.0628461" stop-color="white" stop-opacity="0.29"/>
<stop offset="0.853478" stop-color="#03D9AF"/>
</linearGradient>
<radialGradient id="paint17_radial_14058_3256" cx="0" cy="0" r="1" gradientUnits="userSpaceOnUse" gradientTransform="translate(257.127 257.491) scale(130.647)">
<stop offset="0.81" stop-color="white"/>
<stop offset="0.87" stop-color="#FCFCFD"/>
<stop offset="0.91" stop-color="#F3F4F6"/>
<stop offset="0.94" stop-color="#E9ECF0"/>
<stop offset="0.97" stop-color="#B9C3CE"/>
<stop offset="1" stop-color="#899BAD"/>
</radialGradient>
<radialGradient id="paint18_radial_14058_3256" cx="0" cy="0" r="1" gradientUnits="userSpaceOnUse" gradientTransform="translate(252.461 262.648) scale(41.5024)">
<stop offset="0.63" stop-color="#662E29"/>
<stop offset="0.66" stop-color="#75423E"/>
<stop offset="0.78" stop-color="#AF9290"/>
<stop offset="0.88" stop-color="#DACDCB"/>
<stop offset="0.96" stop-color="#F4F1F0"/>
<stop offset="1" stop-color="white"/>
</radialGradient>
<linearGradient id="paint19_linear_14058_3256" x1="236.459" y1="233.481" x2="302.035" y2="293.826" gradientUnits="userSpaceOnUse">
<stop offset="0.0981283" stop-color="#03D9AF"/>
<stop offset="0.348112" stop-color="white"/>
<stop offset="0.752013" stop-color="#03D9AF"/>
</linearGradient>
<linearGradient id="paint20_linear_14058_3256" x1="282.017" y1="232.449" x2="225.572" y2="288.937" gradientUnits="userSpaceOnUse">
<stop offset="0.28" stop-color="#303030"/>
<stop offset="1" stop-color="#000604"/>
</linearGradient>
<linearGradient id="paint21_linear_14058_3256" x1="257.001" y1="97.7879" x2="257.001" y2="137.1" gradientUnits="userSpaceOnUse">
<stop offset="0.228754" stop-color="#FFEEB8" stop-opacity="0.5"/>
<stop offset="0.544" stop-color="#857000"/>
</linearGradient>
<linearGradient id="paint22_linear_14058_3256" x1="282.568" y1="144.068" x2="298.2" y2="153.332" gradientUnits="userSpaceOnUse">
<stop stop-color="#ECB62B"/>
<stop offset="1" stop-color="#D45AF1"/>
</linearGradient>
<linearGradient id="paint23_linear_14058_3256" x1="172.01" y1="176.755" x2="186.247" y2="165.464" gradientUnits="userSpaceOnUse">
<stop stop-color="#ECB62B"/>
<stop offset="1" stop-color="#D45AF1"/>
</linearGradient>
<linearGradient id="paint24_linear_14058_3256" x1="375.624" y1="217.164" x2="354.056" y2="213.215" gradientUnits="userSpaceOnUse">
<stop stop-color="#926532"/>
<stop offset="0.21" stop-color="#DEAD71"/>
<stop offset="0.38" stop-color="#FCFAF1"/>
<stop offset="0.53" stop-color="#E9BF79"/>
<stop offset="0.69" stop-color="#CD7A3B"/>
<stop offset="0.84" stop-color="#C36F33"/>
<stop offset="1" stop-color="#673F21"/>
</linearGradient>
<linearGradient id="paint25_linear_14058_3256" x1="374.989" y1="220.634" x2="353.419" y2="216.68" gradientUnits="userSpaceOnUse">
<stop stop-color="#926532"/>
<stop offset="0.21" stop-color="#DEAD71"/>
<stop offset="0.38" stop-color="#FCFAF1"/>
<stop offset="0.53" stop-color="#E9BF79"/>
<stop offset="0.69" stop-color="#CD7A3B"/>
<stop offset="0.84" stop-color="#C36F33"/>
<stop offset="1" stop-color="#673F21"/>
</linearGradient>
<linearGradient id="paint26_linear_14058_3256" x1="374.028" y1="225.897" x2="352.457" y2="221.943" gradientUnits="userSpaceOnUse">
<stop stop-color="#926532"/>
<stop offset="0.21" stop-color="#DEAD71"/>
<stop offset="0.38" stop-color="#FCFAF1"/>
<stop offset="0.53" stop-color="#E9BF79"/>
<stop offset="0.69" stop-color="#CD7A3B"/>
<stop offset="0.84" stop-color="#C36F33"/>
<stop offset="1" stop-color="#673F21"/>
</linearGradient>
<linearGradient id="paint27_linear_14058_3256" x1="373.959" y1="226.263" x2="352.388" y2="222.312" gradientUnits="userSpaceOnUse">
<stop stop-color="#926532"/>
<stop offset="0.21" stop-color="#DEAD71"/>
<stop offset="0.38" stop-color="#FCFAF1"/>
<stop offset="0.53" stop-color="#E9BF79"/>
<stop offset="0.69" stop-color="#CD7A3B"/>
<stop offset="0.84" stop-color="#C36F33"/>
<stop offset="1" stop-color="#673F21"/>
</linearGradient>
<linearGradient id="paint28_linear_14058_3256" x1="374.593" y1="222.797" x2="353.023" y2="218.843" gradientUnits="userSpaceOnUse">
<stop stop-color="#926532"/>
<stop offset="0.21" stop-color="#DEAD71"/>
<stop offset="0.38" stop-color="#FCFAF1"/>
<stop offset="0.53" stop-color="#E9BF79"/>
<stop offset="0.69" stop-color="#CD7A3B"/>
<stop offset="0.84" stop-color="#C36F33"/>
<stop offset="1" stop-color="#673F21"/>
</linearGradient>
<linearGradient id="paint29_linear_14058_3256" x1="375.559" y1="217.535" x2="353.988" y2="213.581" gradientUnits="userSpaceOnUse">
<stop stop-color="#926532"/>
<stop offset="0.21" stop-color="#DEAD71"/>
<stop offset="0.38" stop-color="#FCFAF1"/>
<stop offset="0.53" stop-color="#E9BF79"/>
<stop offset="0.69" stop-color="#CD7A3B"/>
<stop offset="0.84" stop-color="#C36F33"/>
<stop offset="1" stop-color="#673F21"/>
</linearGradient>
<linearGradient id="paint30_linear_14058_3256" x1="211.99" y1="357.212" x2="190.422" y2="353.263" gradientUnits="userSpaceOnUse">
<stop stop-color="#926532"/>
<stop offset="0.21" stop-color="#DEAD71"/>
<stop offset="0.38" stop-color="#FCFAF1"/>
<stop offset="0.53" stop-color="#E9BF79"/>
<stop offset="0.69" stop-color="#CD7A3B"/>
<stop offset="0.84" stop-color="#C36F33"/>
<stop offset="1" stop-color="#673F21"/>
</linearGradient>
<linearGradient id="paint31_linear_14058_3256" x1="211.355" y1="360.681" x2="189.784" y2="356.728" gradientUnits="userSpaceOnUse">
<stop stop-color="#926532"/>
<stop offset="0.21" stop-color="#DEAD71"/>
<stop offset="0.38" stop-color="#FCFAF1"/>
<stop offset="0.53" stop-color="#E9BF79"/>
<stop offset="0.69" stop-color="#CD7A3B"/>
<stop offset="0.84" stop-color="#C36F33"/>
<stop offset="1" stop-color="#673F21"/>
</linearGradient>
<linearGradient id="paint32_linear_14058_3256" x1="210.393" y1="365.945" x2="188.823" y2="361.991" gradientUnits="userSpaceOnUse">
<stop stop-color="#926532"/>
<stop offset="0.21" stop-color="#DEAD71"/>
<stop offset="0.38" stop-color="#FCFAF1"/>
<stop offset="0.53" stop-color="#E9BF79"/>
<stop offset="0.69" stop-color="#CD7A3B"/>
<stop offset="0.84" stop-color="#C36F33"/>
<stop offset="1" stop-color="#673F21"/>
</linearGradient>
<linearGradient id="paint33_linear_14058_3256" x1="210.325" y1="366.311" x2="188.753" y2="362.361" gradientUnits="userSpaceOnUse">
<stop stop-color="#926532"/>
<stop offset="0.21" stop-color="#DEAD71"/>
<stop offset="0.38" stop-color="#FCFAF1"/>
<stop offset="0.53" stop-color="#E9BF79"/>
<stop offset="0.69" stop-color="#CD7A3B"/>
<stop offset="0.84" stop-color="#C36F33"/>
<stop offset="1" stop-color="#673F21"/>
</linearGradient>
<linearGradient id="paint34_linear_14058_3256" x1="210.958" y1="362.844" x2="189.388" y2="358.891" gradientUnits="userSpaceOnUse">
<stop stop-color="#926532"/>
<stop offset="0.21" stop-color="#DEAD71"/>
<stop offset="0.38" stop-color="#FCFAF1"/>
<stop offset="0.53" stop-color="#E9BF79"/>
<stop offset="0.69" stop-color="#CD7A3B"/>
<stop offset="0.84" stop-color="#C36F33"/>
<stop offset="1" stop-color="#673F21"/>
</linearGradient>
<linearGradient id="paint35_linear_14058_3256" x1="211.924" y1="357.582" x2="190.354" y2="353.628" gradientUnits="userSpaceOnUse">
<stop stop-color="#926532"/>
<stop offset="0.21" stop-color="#DEAD71"/>
<stop offset="0.38" stop-color="#FCFAF1"/>
<stop offset="0.53" stop-color="#E9BF79"/>
<stop offset="0.69" stop-color="#CD7A3B"/>
<stop offset="0.84" stop-color="#C36F33"/>
<stop offset="1" stop-color="#673F21"/>
</linearGradient>
<linearGradient id="paint36_linear_14058_3256" x1="363.34" y1="320.848" x2="341.772" y2="316.899" gradientUnits="userSpaceOnUse">
<stop stop-color="#926532"/>
<stop offset="0.21" stop-color="#DEAD71"/>
<stop offset="0.38" stop-color="#FCFAF1"/>
<stop offset="0.53" stop-color="#E9BF79"/>
<stop offset="0.69" stop-color="#CD7A3B"/>
<stop offset="0.84" stop-color="#C36F33"/>
<stop offset="1" stop-color="#673F21"/>
</linearGradient>
<linearGradient id="paint37_linear_14058_3256" x1="362.704" y1="324.318" x2="341.134" y2="320.364" gradientUnits="userSpaceOnUse">
<stop stop-color="#926532"/>
<stop offset="0.21" stop-color="#DEAD71"/>
<stop offset="0.38" stop-color="#FCFAF1"/>
<stop offset="0.53" stop-color="#E9BF79"/>
<stop offset="0.69" stop-color="#CD7A3B"/>
<stop offset="0.84" stop-color="#C36F33"/>
<stop offset="1" stop-color="#673F21"/>
</linearGradient>
<linearGradient id="paint38_linear_14058_3256" x1="361.742" y1="329.581" x2="340.172" y2="325.627" gradientUnits="userSpaceOnUse">
<stop stop-color="#926532"/>
<stop offset="0.21" stop-color="#DEAD71"/>
<stop offset="0.38" stop-color="#FCFAF1"/>
<stop offset="0.53" stop-color="#E9BF79"/>
<stop offset="0.69" stop-color="#CD7A3B"/>
<stop offset="0.84" stop-color="#C36F33"/>
<stop offset="1" stop-color="#673F21"/>
</linearGradient>
<linearGradient id="paint39_linear_14058_3256" x1="361.675" y1="329.947" x2="340.104" y2="325.997" gradientUnits="userSpaceOnUse">
<stop stop-color="#926532"/>
<stop offset="0.21" stop-color="#DEAD71"/>
<stop offset="0.38" stop-color="#FCFAF1"/>
<stop offset="0.53" stop-color="#E9BF79"/>
<stop offset="0.69" stop-color="#CD7A3B"/>
<stop offset="0.84" stop-color="#C36F33"/>
<stop offset="1" stop-color="#673F21"/>
</linearGradient>
<linearGradient id="paint40_linear_14058_3256" x1="362.309" y1="326.481" x2="340.738" y2="322.527" gradientUnits="userSpaceOnUse">
<stop stop-color="#926532"/>
<stop offset="0.21" stop-color="#DEAD71"/>
<stop offset="0.38" stop-color="#FCFAF1"/>
<stop offset="0.53" stop-color="#E9BF79"/>
<stop offset="0.69" stop-color="#CD7A3B"/>
<stop offset="0.84" stop-color="#C36F33"/>
<stop offset="1" stop-color="#673F21"/>
</linearGradient>
<linearGradient id="paint41_linear_14058_3256" x1="363.273" y1="321.219" x2="341.703" y2="317.265" gradientUnits="userSpaceOnUse">
<stop stop-color="#926532"/>
<stop offset="0.21" stop-color="#DEAD71"/>
<stop offset="0.38" stop-color="#FCFAF1"/>
<stop offset="0.53" stop-color="#E9BF79"/>
<stop offset="0.69" stop-color="#CD7A3B"/>
<stop offset="0.84" stop-color="#C36F33"/>
<stop offset="1" stop-color="#673F21"/>
</linearGradient>
</defs>
</svg>
