<svg width="40" height="40" viewBox="0 0 40 40" fill="none" xmlns="http://www.w3.org/2000/svg">
<rect width="40" height="40" rx="20" fill="#D9D9D9" fill-opacity="0.14"/>
<g clip-path="url(#clip0_14058_1085)">
<path d="M21.2873 19.9881C21.2873 23.4009 18.5395 26.1674 15.1501 26.1674C11.7607 26.1674 9.0127 23.4009 9.0127 19.9881C9.0127 16.5754 11.7605 13.8086 15.1501 13.8086C18.5397 13.8086 21.2873 16.5754 21.2873 19.9881Z" fill="#909090"/>
<path d="M28.0202 19.9884C28.0202 23.2008 26.6463 25.806 24.9515 25.806C23.2567 25.806 21.8828 23.2008 21.8828 19.9884C21.8828 16.7761 23.2565 14.1709 24.9513 14.1709C26.6461 14.1709 28.02 16.7752 28.02 19.9884" fill="#909090"/>
<path d="M30.7736 19.988C30.7736 22.8655 30.2904 25.1996 29.6943 25.1996C29.0982 25.1996 28.6152 22.8661 28.6152 19.988C28.6152 17.1099 29.0984 14.7764 29.6943 14.7764C30.2902 14.7764 30.7736 17.1096 30.7736 19.988Z" fill="#909090"/>
</g>
<defs>
<clipPath id="clip0_14058_1085">
<rect width="24" height="24" fill="white" transform="translate(8 8)"/>
</clipPath>
</defs>
</svg>
