<svg width="40" height="40" viewBox="0 0 40 40" fill="none" xmlns="http://www.w3.org/2000/svg">
<rect width="40" height="40" rx="20" fill="#D9D9D9" fill-opacity="0.14"/>
<path fill-rule="evenodd" clip-rule="evenodd" d="M26.9593 26.8852L26.9599 26.8836L26.9775 26.8412L30 12.0979V12.05C30 11.6827 29.8597 11.362 29.5544 11.1697C29.2872 11.0013 28.98 10.9893 28.7647 11.0051C28.5369 11.0219 28.322 11.0769 28.1733 11.1227C28.0968 11.1462 28.0328 11.1689 27.987 11.1861C27.964 11.1947 27.9454 11.202 27.9319 11.2075L27.9186 11.2129L11.0664 17.6088L11.0618 17.6104C11.0527 17.6136 11.0406 17.6179 11.0261 17.6234C10.9971 17.6343 10.9577 17.6499 10.9113 17.6703C10.8203 17.7102 10.6946 17.7717 10.5671 17.8562C10.3505 17.9997 9.93819 18.3393 10.0078 18.8778C10.0655 19.3239 10.3833 19.6072 10.5975 19.7538C10.7124 19.8324 10.8223 19.8891 10.9027 19.9262C10.9435 19.945 10.9781 19.9594 11.0039 19.9695C11.0168 19.9746 11.0277 19.9787 11.036 19.9818L11.0467 19.9856L11.0536 19.9881L14.002 20.9484C13.992 21.1274 14.0104 21.3099 14.0594 21.4899L15.5363 26.9101C15.7114 27.5528 16.3124 28.0005 16.9993 28C17.6151 27.9996 18.1612 27.6392 18.3932 27.1015L20.699 24.7162L24.6591 27.6535L24.7154 27.6773C25.0752 27.8292 25.4113 27.8773 25.7187 27.8367C26.0256 27.7962 26.2695 27.6716 26.4526 27.5298C26.6329 27.3903 26.7565 27.2328 26.8342 27.1142C26.8736 27.054 26.9031 27.0011 26.9235 26.9612C26.9337 26.9412 26.9418 26.9243 26.9479 26.9111L26.9555 26.8941L26.9582 26.8878L26.9593 26.8852ZM15.5213 21.117C15.4877 20.9939 15.5404 20.8638 15.6516 20.7955L25.6521 14.6512C25.6521 14.6512 26.2403 14.3058 26.2193 14.6512C26.2193 14.6512 26.3243 14.7123 26.0091 14.9967C25.7101 15.2669 18.8815 21.6454 18.1905 22.2908C18.1506 22.3281 18.1268 22.3708 18.1127 22.4227L16.9982 26.5373L15.5213 21.117Z" fill="#909090"/>
</svg>
