<svg width="752" height="752" viewBox="0 0 752 752" fill="none" xmlns="http://www.w3.org/2000/svg">
<path d="M571.945 555.981C557.524 571.661 540.768 586.094 523.068 597.938L375.76 376.544L571.945 555.981Z" fill="url(#paint0_linear_14058_318)"/>
<path d="M523.17 598.065C505.548 609.823 486.583 619.432 466.679 626.688L375.615 376.902L523.17 598.065Z" fill="#013C31"/>
<path d="M466.911 625.85C447.012 633.12 426.316 637.984 405.263 640.341L375.683 376.124L466.911 625.85Z" fill="url(#paint1_linear_14058_318)"/>
<path d="M405.051 641.148C383.998 643.504 362.738 643.335 341.725 640.644L375.488 376.929L405.051 641.148Z" fill="#013C31"/>
<path d="M341.856 639.773C320.843 637.082 300.226 631.889 280.446 624.305L375.627 376.058L341.856 639.773Z" fill="url(#paint2_linear_14058_318)"/>
<path d="M280.456 624.362C260.676 616.776 241.873 606.854 224.448 594.806L375.652 376.121L280.456 624.362Z" fill="#013C31"/>
<path d="M224.17 595.539C206.737 583.503 190.805 569.425 176.713 553.607L375.231 376.756L224.17 595.539Z" fill="url(#paint3_linear_14058_318)"/>
<path d="M177.176 553.138C163.085 537.319 150.936 519.872 140.986 501.17L375.705 376.299L177.176 553.138Z" fill="#013C31"/>
<path d="M140.76 501.497C130.825 482.786 123.162 462.955 117.934 442.426L375.578 376.812L140.76 501.497Z" fill="url(#paint4_linear_14058_318)"/>
<path d="M118.204 442.451C112.977 421.921 110.223 400.84 110 379.657L375.853 376.854L118.204 442.451Z" fill="#013C31"/>
<path d="M109.447 378.973C109.209 357.789 111.505 336.653 116.284 316.014L375.298 375.996L109.447 378.973Z" fill="url(#paint5_linear_14058_318)"/>
<path d="M117.138 316.837C121.918 296.199 129.149 276.206 138.675 257.284L376.148 376.834L117.138 316.837Z" fill="#013C31"/>
<path d="M137.82 257.237C147.347 238.315 159.101 220.599 172.832 204.467L375.29 376.795L137.82 257.237Z" fill="url(#paint6_linear_14058_318)"/>
<path d="M173.691 203.687C187.423 187.555 203.035 173.123 220.192 160.697L376.138 376.027L173.691 203.687Z" fill="#013C31"/>
<path d="M219.344 161.274C236.493 148.837 255.068 138.494 274.673 130.465L375.43 376.502L219.344 161.274Z" fill="url(#paint7_linear_14058_318)"/>
<path d="M274.89 130.001C294.495 121.974 314.99 116.319 335.937 113.156L375.632 376.044L274.89 130.001Z" fill="#013C31"/>
<path d="M419.239 114.215C440.134 117.705 460.538 123.68 480.015 132.012L375.443 376.451L419.239 114.215Z" fill="#013C31"/>
<path d="M480.53 132.05C500.018 140.358 518.443 150.965 535.413 163.647L376.267 376.622L480.53 132.05Z" fill="url(#paint8_linear_14058_318)"/>
<path d="M534.729 163.202C551.698 175.884 567.091 190.549 580.58 206.885L375.569 376.168L534.729 163.202Z" fill="#013C31"/>
<path d="M580.661 207.083C594.161 223.41 605.661 241.292 614.916 260.348L375.762 376.5L580.661 207.083Z" fill="url(#paint9_linear_14058_318)"/>
<path d="M614.895 259.947C624.149 279.004 631.093 299.098 635.577 319.803L375.734 376.085L614.895 259.947Z" fill="#013C31"/>
<path d="M635.379 320.398C639.863 341.103 641.856 362.269 641.316 383.447L375.534 376.672L635.379 320.398Z" fill="url(#paint10_linear_14058_318)"/>
<path d="M641.159 383.501C640.618 404.679 637.547 425.716 632.013 446.165L375.377 376.709L641.159 383.501Z" fill="#013C31"/>
<path d="M632.426 445.42C626.904 465.873 618.959 485.593 608.757 504.159L375.745 376.132L632.426 445.42Z" fill="url(#paint11_linear_14058_318)"/>
<path d="M609.278 504.268C599.076 522.834 586.691 540.114 572.387 555.741L376.274 376.226L609.278 504.268Z" fill="#013C31"/>
<defs>
<linearGradient id="paint0_linear_14058_318" x1="461.257" y1="498.247" x2="487.159" y2="595.314" gradientUnits="userSpaceOnUse">
<stop offset="0.0628461" stop-color="white" stop-opacity="0.29"/>
<stop offset="0.853478" stop-color="#03D9AF"/>
</linearGradient>
<linearGradient id="paint1_linear_14058_318" x1="380.645" y1="400.676" x2="427.043" y2="631.429" gradientUnits="userSpaceOnUse">
<stop offset="0.0628461" stop-color="white" stop-opacity="0.29"/>
<stop offset="0.853478" stop-color="#03D9AF"/>
</linearGradient>
<linearGradient id="paint2_linear_14058_318" x1="368.748" y1="400.144" x2="303.885" y2="626.402" gradientUnits="userSpaceOnUse">
<stop offset="0.0628461" stop-color="white" stop-opacity="0.29"/>
<stop offset="0.853478" stop-color="#03D9AF"/>
</linearGradient>
<linearGradient id="paint3_linear_14058_318" x1="358.064" y1="394.996" x2="196.574" y2="566.23" gradientUnits="userSpaceOnUse">
<stop offset="0.0628461" stop-color="white" stop-opacity="0.29"/>
<stop offset="0.853478" stop-color="#03D9AF"/>
</linearGradient>
<linearGradient id="paint4_linear_14058_318" x1="351.941" y1="385.102" x2="129.755" y2="462.774" gradientUnits="userSpaceOnUse">
<stop offset="0.0628461" stop-color="white" stop-opacity="0.29"/>
<stop offset="0.853478" stop-color="#03D9AF"/>
</linearGradient>
<linearGradient id="paint5_linear_14058_318" x1="350.494" y1="372.509" x2="117.445" y2="339.519" gradientUnits="userSpaceOnUse">
<stop offset="0.0628461" stop-color="white" stop-opacity="0.29"/>
<stop offset="0.853478" stop-color="#03D9AF"/>
</linearGradient>
<linearGradient id="paint6_linear_14058_318" x1="354.863" y1="362.297" x2="163.059" y2="225.875" gradientUnits="userSpaceOnUse">
<stop offset="0.0628461" stop-color="white" stop-opacity="0.29"/>
<stop offset="0.853478" stop-color="#03D9AF"/>
</linearGradient>
<linearGradient id="paint7_linear_14058_318" x1="363.938" y1="354.245" x2="256.163" y2="144.998" gradientUnits="userSpaceOnUse">
<stop offset="0.0628461" stop-color="white" stop-opacity="0.29"/>
<stop offset="0.853478" stop-color="#03D9AF"/>
</linearGradient>
<linearGradient id="paint8_linear_14058_318" x1="389.44" y1="355.317" x2="513.429" y2="155.25" gradientUnits="userSpaceOnUse">
<stop offset="0.0628461" stop-color="white" stop-opacity="0.29"/>
<stop offset="0.853478" stop-color="#03D9AF"/>
</linearGradient>
<linearGradient id="paint9_linear_14058_318" x1="397.245" y1="363.62" x2="599.239" y2="242.797" gradientUnits="userSpaceOnUse">
<stop offset="0.0628461" stop-color="white" stop-opacity="0.29"/>
<stop offset="0.853478" stop-color="#03D9AF"/>
</linearGradient>
<linearGradient id="paint10_linear_14058_318" x1="400.534" y1="375.108" x2="635.461" y2="360.654" gradientUnits="userSpaceOnUse">
<stop offset="0.0628461" stop-color="white" stop-opacity="0.29"/>
<stop offset="0.853478" stop-color="#03D9AF"/>
</linearGradient>
<linearGradient id="paint11_linear_14058_318" x1="398.672" y1="386.219" x2="614.019" y2="481.222" gradientUnits="userSpaceOnUse">
<stop offset="0.0628461" stop-color="white" stop-opacity="0.29"/>
<stop offset="0.853478" stop-color="#03D9AF"/>
</linearGradient>
</defs>
</svg>
